<?xml version="1.0" encoding="UTF-8"?>
<svg xmlns="http://www.w3.org/2000/svg" xmlns:xlink="http://www.w3.org/1999/xlink" width="40px" height="40px" viewBox="0 0 40 40" version="1.1">
<defs>
<filter id="alpha" filterUnits="objectBoundingBox" x="0%" y="0%" width="100%" height="100%">
  <feColorMatrix type="matrix" in="SourceGraphic" values="0 0 0 0 1 0 0 0 0 1 0 0 0 0 1 0 0 0 1 0"/>
</filter>
<mask id="mask0">
  <g filter="url(#alpha)">
<rect x="0" y="0" width="40" height="40" style="fill:rgb(0%,0%,0%);fill-opacity:0.992157;stroke:none;"/>
  </g>
</mask>
<clipPath id="clip1">
  <rect x="0" y="0" width="40" height="40"/>
</clipPath>
<g id="surface5" clip-path="url(#clip1)">
<path style=" stroke:none;fill-rule:evenodd;fill:rgb(99.607843%,99.607843%,99.607843%);fill-opacity:1;" d="M 29.5625 15.890625 C 30.507812 16.980469 31.429688 18.097656 32.328125 19.238281 C 32.234375 19.300781 32.152344 19.375 32.074219 19.453125 C 31.613281 18.898438 31.152344 18.339844 30.691406 17.78125 C 30.644531 21.636719 30.644531 25.492188 30.691406 29.347656 C 30.933594 29.054688 31.175781 28.765625 31.417969 28.472656 C 31.496094 28.554688 31.582031 28.628906 31.671875 28.691406 C 31.023438 29.546875 30.332031 30.371094 29.601562 31.164062 C 29.523438 31.082031 29.4375 31.011719 29.347656 30.945312 C 29.660156 30.558594 29.976562 30.171875 30.292969 29.78125 C 23.453125 29.695312 16.617188 29.683594 9.78125 29.746094 C 10.214844 30.105469 10.628906 30.496094 11.019531 30.910156 C 10.933594 30.996094 10.847656 31.078125 10.765625 31.164062 C 9.664062 30.183594 8.585938 29.179688 7.527344 28.144531 C 7.613281 28.0625 7.695312 27.976562 7.78125 27.890625 C 8.289062 28.351562 8.800781 28.8125 9.308594 29.273438 C 9.359375 25.5625 9.359375 21.855469 9.308594 18.144531 C 8.988281 18.621094 8.648438 19.078125 8.289062 19.527344 C 8.195312 19.449219 8.113281 19.367188 8.035156 19.273438 C 8.773438 18.175781 9.535156 17.097656 10.328125 16.035156 C 10.421875 16.113281 10.507812 16.199219 10.582031 16.292969 C 10.320312 16.722656 10.03125 17.132812 9.710938 17.527344 C 16.617188 17.589844 23.527344 17.574219 30.4375 17.492188 C 30.046875 17.050781 29.683594 16.589844 29.347656 16.109375 C 29.4375 16.050781 29.511719 15.980469 29.5625 15.890625 Z M 29.5625 15.890625 "/>
</g>
</defs>
<g id="surface1">
<rect x="0" y="0" width="40" height="40" style="fill:rgb(100%,100%,100%);fill-opacity:1;stroke:none;"/>
<use xlink:href="#surface5" mask="url(#mask0)"/>
<path style=" stroke:none;fill-rule:evenodd;fill:rgb(48.235294%,68.235294%,22.352941%);fill-opacity:1;" d="M 17.054688 20.691406 C 17.34375 20.644531 17.441406 20.742188 17.34375 20.980469 C 17.125 21.171875 16.882812 21.304688 16.617188 21.382812 C 16.527344 21.296875 16.527344 21.210938 16.617188 21.128906 C 16.710938 21.296875 16.808594 21.285156 16.910156 21.089844 C 16.851562 21.070312 16.800781 21.03125 16.765625 20.980469 C 16.886719 20.90625 16.984375 20.8125 17.054688 20.691406 Z M 17.054688 20.691406 "/>
<path style=" stroke:none;fill-rule:evenodd;fill:rgb(50.980392%,63.529412%,27.843137%);fill-opacity:1;" d="M 14.726562 21.34375 C 14.527344 21.429688 14.332031 21.527344 14.144531 21.636719 C 13.96875 21.492188 13.800781 21.335938 13.636719 21.164062 C 13.734375 21.140625 13.832031 21.117188 13.925781 21.089844 C 13.445312 20.90625 13.445312 20.808594 13.925781 20.800781 C 13.832031 20.703125 13.734375 20.605469 13.636719 20.507812 C 13.773438 20.496094 13.882812 20.558594 13.964844 20.691406 C 13.988281 20.546875 14.011719 20.398438 14.035156 20.253906 C 14.140625 20.628906 14.210938 20.628906 14.253906 20.253906 C 14.269531 20.390625 14.320312 20.511719 14.398438 20.617188 C 14.472656 20.445312 14.519531 20.46875 14.546875 20.691406 C 14.59375 20.789062 14.640625 20.789062 14.691406 20.691406 C 14.632812 20.859375 14.691406 20.992188 14.871094 21.089844 C 14.914062 21.207031 14.863281 21.292969 14.726562 21.34375 Z M 14.726562 21.34375 "/>
<path style=" stroke:none;fill-rule:evenodd;fill:rgb(95.686275%,81.960784%,81.568627%);fill-opacity:1;" d="M 19.453125 20.835938 C 19.453125 20.8125 19.453125 20.789062 19.453125 20.765625 C 20.429688 20.769531 21.398438 20.832031 22.363281 20.945312 C 22.675781 20.984375 22.964844 21.082031 23.238281 21.238281 C 23.140625 21.273438 23.046875 21.285156 22.945312 21.273438 C 22.683594 21.121094 22.390625 21.039062 22.074219 21.019531 C 21.203125 20.933594 20.328125 20.871094 19.453125 20.835938 Z M 19.453125 20.835938 "/>
<path style=" stroke:none;fill-rule:evenodd;fill:rgb(45.098039%,59.607843%,50.196078%);fill-opacity:1;" d="M 18.363281 21.34375 C 18.101562 21.367188 17.832031 21.367188 17.5625 21.34375 C 17.664062 21.210938 17.808594 21.136719 18 21.128906 C 18.171875 21.132812 18.292969 21.207031 18.363281 21.34375 Z M 18.363281 21.34375 "/>
<path style=" stroke:none;fill-rule:evenodd;fill:rgb(20%,12.941176%,12.54902%);fill-opacity:1;" d="M 19.453125 20.765625 C 20.242188 20.679688 21.042969 20.667969 21.855469 20.726562 C 23.171875 20.699219 23.828125 21.34375 23.820312 22.65625 C 23.820312 22.703125 23.792969 22.726562 23.746094 22.726562 C 23.722656 22.234375 23.578125 21.789062 23.308594 21.382812 C 23.09375 21.347656 22.875 21.332031 22.65625 21.34375 C 22.667969 21.796875 22.753906 22.230469 22.910156 22.65625 C 23.015625 22.832031 23.171875 22.902344 23.382812 22.871094 C 23.332031 22.9375 23.257812 22.964844 23.164062 22.945312 C 22.972656 22.929688 22.835938 22.832031 22.765625 22.65625 C 22.636719 22.226562 22.550781 21.789062 22.507812 21.34375 C 22.636719 21.277344 22.78125 21.25 22.945312 21.273438 C 23.046875 21.285156 23.140625 21.273438 23.238281 21.238281 C 22.964844 21.082031 22.675781 20.984375 22.363281 20.945312 C 21.398438 20.832031 20.429688 20.769531 19.453125 20.765625 Z M 19.453125 20.765625 "/>
<path style=" stroke:none;fill-rule:evenodd;fill:rgb(29.019608%,42.745098%,17.647059%);fill-opacity:1;" d="M 17.054688 20.691406 C 16.984375 20.8125 16.886719 20.90625 16.765625 20.980469 C 16.800781 21.03125 16.851562 21.070312 16.910156 21.089844 C 16.808594 21.285156 16.710938 21.296875 16.617188 21.128906 C 16.527344 21.210938 16.527344 21.296875 16.617188 21.382812 C 16.882812 21.304688 17.125 21.171875 17.34375 20.980469 C 17.410156 21.121094 17.410156 21.265625 17.34375 21.417969 C 17.089844 21.4375 16.847656 21.484375 16.617188 21.5625 C 16.515625 21.53125 16.46875 21.457031 16.472656 21.34375 C 16.5 21.011719 16.644531 20.746094 16.910156 20.546875 C 16.984375 20.570312 17.03125 20.621094 17.054688 20.691406 Z M 17.054688 20.691406 "/>
<path style=" stroke:none;fill-rule:evenodd;fill:rgb(90.196078%,48.235294%,7.058824%);fill-opacity:1;" d="M 16.472656 21.34375 C 16.46875 21.457031 16.515625 21.53125 16.617188 21.5625 C 16.6875 21.640625 16.710938 21.738281 16.691406 21.855469 C 16.359375 21.921875 16.019531 21.949219 15.671875 21.925781 C 15.789062 21.707031 15.9375 21.5 16.109375 21.308594 C 16.238281 21.261719 16.359375 21.273438 16.472656 21.34375 Z M 16.472656 21.34375 "/>
<path style=" stroke:none;fill-rule:evenodd;fill:rgb(90.588235%,24.313725%,27.45098%);fill-opacity:1;" d="M 17.5625 21.34375 C 17.832031 21.367188 18.101562 21.367188 18.363281 21.34375 C 18.488281 21.429688 18.535156 21.550781 18.507812 21.710938 C 18.507812 21.734375 18.507812 21.757812 18.507812 21.78125 C 18.40625 21.816406 18.359375 21.890625 18.363281 22 C 18.074219 22 17.78125 22 17.492188 22 C 17.492188 21.976562 17.492188 21.953125 17.492188 21.925781 C 17.460938 21.820312 17.4375 21.710938 17.417969 21.601562 C 17.410156 21.476562 17.457031 21.390625 17.5625 21.34375 Z M 17.5625 21.34375 "/>
<path style=" stroke:none;fill-rule:evenodd;fill:rgb(96.078431%,89.411765%,89.019608%);fill-opacity:1;" d="M 22.507812 21.34375 C 22.550781 21.789062 22.636719 22.226562 22.765625 22.65625 C 22.835938 22.832031 22.972656 22.929688 23.164062 22.945312 C 23.164062 22.96875 23.164062 22.996094 23.164062 23.019531 C 22.914062 23.042969 22.730469 22.945312 22.617188 22.726562 C 22.484375 22.339844 22.398438 21.9375 22.363281 21.527344 C 22.378906 21.425781 22.425781 21.367188 22.507812 21.34375 Z M 22.507812 21.34375 "/>
<path style=" stroke:none;fill-rule:evenodd;fill:rgb(97.254902%,85.882353%,70.196078%);fill-opacity:1;" d="M 23.746094 22.726562 C 23.667969 22.855469 23.546875 22.902344 23.382812 22.871094 C 23.171875 22.902344 23.015625 22.832031 22.910156 22.65625 C 22.753906 22.230469 22.667969 21.796875 22.65625 21.34375 C 22.875 21.332031 23.09375 21.347656 23.308594 21.382812 C 23.578125 21.789062 23.722656 22.234375 23.746094 22.726562 Z M 23.746094 22.726562 "/>
<path style=" stroke:none;fill-rule:evenodd;fill:rgb(98.039216%,36.470588%,33.72549%);fill-opacity:1;" d="M 19.453125 20.835938 C 20.328125 20.871094 21.203125 20.933594 22.074219 21.019531 C 22.390625 21.039062 22.683594 21.121094 22.945312 21.273438 C 22.78125 21.25 22.636719 21.277344 22.507812 21.34375 C 22.425781 21.367188 22.378906 21.425781 22.363281 21.527344 C 22.398438 21.9375 22.484375 22.339844 22.617188 22.726562 C 22.730469 22.945312 22.914062 23.042969 23.164062 23.019531 C 23.332031 23.019531 23.503906 23.019531 23.671875 23.019531 C 23.722656 23.140625 23.820312 23.1875 23.964844 23.164062 C 24.566406 23.230469 25.171875 23.253906 25.78125 23.238281 C 25.804688 23.238281 25.832031 23.238281 25.855469 23.238281 C 26.121094 23.292969 26.375 23.390625 26.617188 23.527344 C 26.710938 23.734375 26.75 23.953125 26.726562 24.183594 C 25.71875 23.835938 24.699219 23.8125 23.671875 24.109375 C 23.535156 24.125 23.4375 24.199219 23.382812 24.328125 C 23.207031 24.378906 23.097656 24.5 23.054688 24.691406 C 22.941406 25.054688 22.929688 25.421875 23.019531 25.78125 C 22.945312 25.78125 22.871094 25.78125 22.800781 25.78125 C 22.8125 25.6875 22.789062 25.601562 22.726562 25.527344 C 21.683594 25.492188 20.644531 25.480469 19.601562 25.492188 C 19.496094 25.527344 19.449219 25.597656 19.453125 25.710938 C 19.261719 25.710938 19.066406 25.710938 18.871094 25.710938 C 18.75 25.710938 18.628906 25.710938 18.507812 25.710938 C 18.53125 25.429688 18.507812 25.160156 18.4375 24.910156 C 18.445312 24.761719 18.394531 24.640625 18.292969 24.546875 C 18.261719 24.382812 18.164062 24.273438 18 24.21875 C 17.347656 24.113281 16.695312 24.089844 16.035156 24.144531 C 15.730469 24.21875 15.523438 24.402344 15.417969 24.691406 C 15.382812 25.003906 15.371094 25.320312 15.382812 25.636719 C 15.140625 25.636719 14.898438 25.636719 14.65625 25.636719 C 14.195312 25.636719 13.734375 25.636719 13.273438 25.636719 C 13.296875 25.378906 13.269531 25.136719 13.199219 24.910156 C 13.1875 24.457031 13.1875 24.019531 13.199219 23.601562 C 13.671875 23.671875 14.15625 23.695312 14.65625 23.671875 C 15.429688 23.710938 16.207031 23.738281 16.980469 23.746094 C 17.757812 23.746094 18.535156 23.746094 19.308594 23.746094 C 19.269531 22.769531 19.320312 21.796875 19.453125 20.835938 Z M 19.453125 20.835938 "/>
<path style=" stroke:none;fill-rule:evenodd;fill:rgb(97.647059%,86.666667%,70.980392%);fill-opacity:1;" d="M 20.035156 21.34375 C 20.542969 21.398438 21.054688 21.421875 21.5625 21.417969 C 21.65625 21.402344 21.730469 21.425781 21.78125 21.492188 C 22.09375 21.839844 22.214844 22.253906 22.144531 22.726562 C 22.15625 22.800781 22.132812 22.847656 22.074219 22.871094 C 21.589844 22.871094 21.101562 22.871094 20.617188 22.871094 C 20.449219 22.871094 20.277344 22.871094 20.109375 22.871094 C 20.109375 22.75 20.109375 22.628906 20.109375 22.507812 C 20.125 22.117188 20.101562 21.730469 20.035156 21.34375 Z M 20.035156 21.34375 "/>
<path style=" stroke:none;fill-rule:evenodd;fill:rgb(99.607843%,98.039216%,97.647059%);fill-opacity:1;" d="M 19.964844 21.34375 C 19.964844 21.804688 19.964844 22.265625 19.964844 22.726562 C 19.957031 22.832031 19.984375 22.929688 20.035156 23.019531 C 19.941406 22.769531 19.890625 22.488281 19.890625 22.183594 C 19.890625 21.890625 19.914062 21.609375 19.964844 21.34375 Z M 19.964844 21.34375 "/>
<path style=" stroke:none;fill-rule:evenodd;fill:rgb(22.745098%,13.72549%,11.764706%);fill-opacity:1;" d="M 20.035156 21.34375 C 20.230469 21.296875 20.433594 21.273438 20.65625 21.273438 C 20.976562 21.261719 21.28125 21.308594 21.5625 21.417969 C 21.054688 21.421875 20.542969 21.398438 20.035156 21.34375 Z M 20.035156 21.34375 "/>
<path style=" stroke:none;fill-rule:evenodd;fill:rgb(86.27451%,65.882353%,21.568627%);fill-opacity:1;" d="M 14.726562 21.34375 C 15.082031 21.382812 15.300781 21.578125 15.382812 21.925781 C 15.042969 21.925781 14.703125 21.925781 14.363281 21.925781 C 14.265625 21.925781 14.167969 21.925781 14.074219 21.925781 C 14.074219 21.832031 14.074219 21.734375 14.074219 21.636719 C 14.097656 21.636719 14.121094 21.636719 14.144531 21.636719 C 14.332031 21.527344 14.527344 21.429688 14.726562 21.34375 Z M 14.726562 21.34375 "/>
<path style=" stroke:none;fill-rule:evenodd;fill:rgb(23.529412%,13.72549%,13.333333%);fill-opacity:1;" d="M 19.964844 21.34375 C 19.988281 21.34375 20.011719 21.34375 20.035156 21.34375 C 20.101562 21.730469 20.125 22.117188 20.109375 22.507812 C 20.0625 22.582031 20.011719 22.65625 19.964844 22.726562 C 19.964844 22.265625 19.964844 21.804688 19.964844 21.34375 Z M 19.964844 21.34375 "/>
<path style=" stroke:none;fill-rule:evenodd;fill:rgb(15.294118%,7.45098%,6.27451%);fill-opacity:1;" d="M 21.78125 21.492188 C 21.996094 21.554688 22.128906 21.699219 22.183594 21.925781 C 22.261719 22.261719 22.300781 22.601562 22.292969 22.945312 C 22.242188 22.871094 22.195312 22.800781 22.144531 22.726562 C 22.214844 22.253906 22.09375 21.839844 21.78125 21.492188 Z M 21.78125 21.492188 "/>
<path style=" stroke:none;fill-rule:evenodd;fill:rgb(9.803922%,7.058824%,7.058824%);fill-opacity:1;" d="M 19.453125 20.765625 C 19.453125 20.789062 19.453125 20.8125 19.453125 20.835938 C 19.320312 21.796875 19.269531 22.769531 19.308594 23.746094 C 18.535156 23.746094 17.757812 23.746094 16.980469 23.746094 C 17.429688 23.671875 17.890625 23.648438 18.363281 23.671875 C 18.484375 23.625 18.535156 23.527344 18.507812 23.382812 C 17.296875 23.382812 16.085938 23.382812 14.871094 23.382812 C 15.464844 23.308594 16.070312 23.285156 16.691406 23.308594 C 17.539062 23.308594 18.386719 23.308594 19.238281 23.308594 C 19.269531 23.121094 19.222656 22.976562 19.089844 22.871094 C 17.925781 22.871094 16.765625 22.871094 15.601562 22.871094 C 14.945312 22.824219 14.292969 22.777344 13.636719 22.726562 C 13.636719 22.679688 13.636719 22.628906 13.636719 22.582031 C 13.683594 22.636719 13.746094 22.6875 13.816406 22.726562 C 13.949219 22.691406 13.964844 22.628906 13.855469 22.546875 C 14.53125 22.507812 15.210938 22.496094 15.890625 22.507812 C 16.8125 22.507812 17.734375 22.507812 18.65625 22.507812 C 18.660156 22.84375 18.734375 22.867188 18.871094 22.582031 C 18.917969 22.589844 18.941406 22.617188 18.945312 22.65625 C 18.96875 22.765625 19.042969 22.816406 19.164062 22.800781 C 19.210938 22.695312 19.234375 22.574219 19.238281 22.4375 C 19.234375 22.28125 19.183594 22.160156 19.089844 22.074219 C 17.296875 22.09375 15.5 22.070312 13.710938 22 C 13.710938 21.878906 13.710938 21.757812 13.710938 21.636719 C 13.820312 21.546875 13.941406 21.546875 14.074219 21.636719 C 14.074219 21.734375 14.074219 21.832031 14.074219 21.925781 C 14.167969 21.925781 14.265625 21.925781 14.363281 21.925781 C 15.394531 22 16.4375 22.023438 17.492188 22 C 17.78125 22 18.074219 22 18.363281 22 C 18.476562 21.976562 18.523438 21.902344 18.507812 21.78125 C 18.507812 21.757812 18.507812 21.734375 18.507812 21.710938 C 18.847656 21.46875 18.992188 21.566406 18.945312 22 C 19.042969 22 19.140625 22 19.238281 22 C 19.222656 21.683594 19.238281 21.367188 19.273438 21.054688 C 19.316406 20.941406 19.378906 20.84375 19.453125 20.765625 Z M 19.453125 20.765625 "/>
<path style=" stroke:none;fill-rule:evenodd;fill:rgb(32.941176%,17.647059%,14.117647%);fill-opacity:1;" d="M 16.691406 21.855469 C 16.941406 21.925781 17.210938 21.949219 17.492188 21.925781 C 17.492188 21.953125 17.492188 21.976562 17.492188 22 C 16.4375 22.023438 15.394531 22 14.363281 21.925781 C 14.703125 21.925781 15.042969 21.925781 15.382812 21.925781 C 15.480469 21.925781 15.574219 21.925781 15.671875 21.925781 C 16.019531 21.949219 16.359375 21.921875 16.691406 21.855469 Z M 16.691406 21.855469 "/>
<path style=" stroke:none;fill-rule:evenodd;fill:rgb(99.607843%,92.941176%,93.333333%);fill-opacity:1;" d="M 18.507812 21.78125 C 18.523438 21.902344 18.476562 21.976562 18.363281 22 C 18.359375 21.890625 18.40625 21.816406 18.507812 21.78125 Z M 18.507812 21.78125 "/>
<path style=" stroke:none;fill-rule:evenodd;fill:rgb(69.019608%,67.45098%,70.980392%);fill-opacity:1;" d="M 18.65625 21.710938 C 18.734375 21.71875 18.78125 21.765625 18.800781 21.855469 C 18.777344 21.902344 18.75 21.953125 18.726562 22 C 18.660156 21.914062 18.636719 21.816406 18.65625 21.710938 Z M 18.65625 21.710938 "/>
<path style=" stroke:none;fill-rule:evenodd;fill:rgb(55.294118%,61.568627%,67.058824%);fill-opacity:1;" d="M 13.78125 21.710938 C 13.925781 21.742188 13.949219 21.816406 13.855469 21.925781 C 13.789062 21.867188 13.765625 21.792969 13.78125 21.710938 Z M 13.78125 21.710938 "/>
<path style=" stroke:none;fill-rule:evenodd;fill:rgb(40%,54.117647%,61.568627%);fill-opacity:1;" d="M 13.710938 22 C 15.5 22.070312 17.296875 22.09375 19.089844 22.074219 C 19.089844 22.21875 19.089844 22.363281 19.089844 22.507812 C 18.027344 22.441406 16.960938 22.417969 15.890625 22.4375 C 15.042969 22.4375 14.195312 22.4375 13.34375 22.4375 C 13.34375 22.292969 13.34375 22.144531 13.34375 22 C 13.46875 22 13.589844 22 13.710938 22 Z M 13.710938 22 "/>
<path style=" stroke:none;fill-rule:evenodd;fill:rgb(46.27451%,31.764706%,28.627451%);fill-opacity:1;" d="M 13.710938 21.636719 C 13.710938 21.757812 13.710938 21.878906 13.710938 22 C 13.589844 22 13.46875 22 13.34375 22 C 13.34375 22.144531 13.34375 22.292969 13.34375 22.4375 C 14.195312 22.4375 15.042969 22.4375 15.890625 22.4375 C 15.890625 22.460938 15.890625 22.484375 15.890625 22.507812 C 15.210938 22.496094 14.53125 22.507812 13.855469 22.546875 C 13.964844 22.628906 13.949219 22.691406 13.816406 22.726562 C 13.746094 22.6875 13.683594 22.636719 13.636719 22.582031 C 13.523438 22.523438 13.402344 22.5 13.273438 22.507812 C 13.273438 22.316406 13.273438 22.121094 13.273438 21.925781 C 13.394531 21.925781 13.515625 21.925781 13.636719 21.925781 C 13.617188 21.8125 13.640625 21.714844 13.710938 21.636719 Z M 13.710938 21.636719 "/>
<path style=" stroke:none;fill-rule:evenodd;fill:rgb(58.431373%,47.45098%,48.627451%);fill-opacity:1;" d="M 19.089844 22.074219 C 19.183594 22.160156 19.234375 22.28125 19.238281 22.4375 C 19.234375 22.574219 19.210938 22.695312 19.164062 22.800781 C 19.140625 22.6875 19.066406 22.640625 18.945312 22.65625 C 18.941406 22.617188 18.917969 22.589844 18.871094 22.582031 C 18.734375 22.867188 18.660156 22.84375 18.65625 22.507812 C 17.734375 22.507812 16.8125 22.507812 15.890625 22.507812 C 15.890625 22.484375 15.890625 22.460938 15.890625 22.4375 C 16.960938 22.417969 18.027344 22.441406 19.089844 22.507812 C 19.089844 22.363281 19.089844 22.21875 19.089844 22.074219 Z M 19.089844 22.074219 "/>
<path style=" stroke:none;fill-rule:evenodd;fill:rgb(98.039216%,97.647059%,97.254902%);fill-opacity:1;" d="M 14.21875 22.582031 C 14.242188 22.628906 14.265625 22.679688 14.292969 22.726562 C 14.207031 22.742188 14.132812 22.71875 14.074219 22.65625 C 14.105469 22.597656 14.15625 22.574219 14.21875 22.582031 Z M 14.21875 22.582031 "/>
<path style=" stroke:none;fill-rule:evenodd;fill:rgb(75.686275%,40.392157%,10.980392%);fill-opacity:1;" d="M 14.871094 22.582031 C 15.089844 22.582031 15.308594 22.582031 15.527344 22.582031 C 15.527344 22.628906 15.527344 22.679688 15.527344 22.726562 C 15.40625 22.726562 15.285156 22.726562 15.164062 22.726562 C 15.066406 22.679688 14.96875 22.628906 14.871094 22.582031 Z M 14.871094 22.582031 "/>
<path style=" stroke:none;fill-rule:evenodd;fill:rgb(49.411765%,32.54902%,31.372549%);fill-opacity:1;" d="M 15.527344 22.582031 C 16.535156 22.558594 17.527344 22.582031 18.507812 22.65625 C 17.527344 22.628906 16.558594 22.65625 15.601562 22.726562 C 15.574219 22.726562 15.550781 22.726562 15.527344 22.726562 C 15.527344 22.679688 15.527344 22.628906 15.527344 22.582031 Z M 15.527344 22.582031 "/>
<path style=" stroke:none;fill-rule:evenodd;fill:rgb(45.098039%,30.196078%,29.803922%);fill-opacity:1;" d="M 20.109375 22.507812 C 20.109375 22.628906 20.109375 22.75 20.109375 22.871094 C 20.277344 22.871094 20.449219 22.871094 20.617188 22.871094 C 20.714844 22.921875 20.8125 22.96875 20.910156 23.019531 C 20.617188 23.019531 20.328125 23.019531 20.035156 23.019531 C 19.984375 22.929688 19.957031 22.832031 19.964844 22.726562 C 20.011719 22.65625 20.0625 22.582031 20.109375 22.507812 Z M 20.109375 22.507812 "/>
<path style=" stroke:none;fill-rule:evenodd;fill:rgb(88.627451%,67.45098%,22.352941%);fill-opacity:1;" d="M 14.21875 22.582031 C 14.4375 22.582031 14.65625 22.582031 14.871094 22.582031 C 14.96875 22.628906 15.066406 22.679688 15.164062 22.726562 C 14.871094 22.726562 14.582031 22.726562 14.292969 22.726562 C 14.265625 22.679688 14.242188 22.628906 14.21875 22.582031 Z M 14.21875 22.582031 "/>
<path style=" stroke:none;fill-rule:evenodd;fill:rgb(99.607843%,100%,99.607843%);fill-opacity:1;" d="M 18.945312 22.65625 C 19.066406 22.640625 19.140625 22.6875 19.164062 22.800781 C 19.042969 22.816406 18.96875 22.765625 18.945312 22.65625 Z M 18.945312 22.65625 "/>
<path style=" stroke:none;fill-rule:evenodd;fill:rgb(74.509804%,64.705882%,64.313725%);fill-opacity:1;" d="M 15.601562 22.726562 C 16.558594 22.65625 17.527344 22.628906 18.507812 22.65625 C 18.371094 22.75 18.203125 22.796875 18 22.800781 C 17.203125 22.742188 16.402344 22.714844 15.601562 22.726562 Z M 15.601562 22.726562 "/>
<path style=" stroke:none;fill-rule:evenodd;fill:rgb(23.529412%,31.372549%,35.686275%);fill-opacity:1;" d="M 13.417969 22.726562 C 13.492188 22.726562 13.5625 22.726562 13.636719 22.726562 C 14.292969 22.777344 14.945312 22.824219 15.601562 22.871094 C 14.871094 22.871094 14.144531 22.871094 13.417969 22.871094 C 13.417969 22.824219 13.417969 22.777344 13.417969 22.726562 Z M 13.417969 22.726562 "/>
<path style=" stroke:none;fill-rule:evenodd;fill:rgb(10.980392%,6.27451%,5.882353%);fill-opacity:1;" d="M 20.617188 22.871094 C 21.101562 22.871094 21.589844 22.871094 22.074219 22.871094 C 21.855469 22.921875 21.636719 22.96875 21.417969 23.019531 C 21.25 23.019531 21.078125 23.019531 20.910156 23.019531 C 20.8125 22.96875 20.714844 22.921875 20.617188 22.871094 Z M 20.617188 22.871094 "/>
<path style=" stroke:none;fill-rule:evenodd;fill:rgb(49.411765%,34.509804%,33.72549%);fill-opacity:1;" d="M 23.820312 22.65625 C 23.886719 22.757812 23.910156 22.878906 23.890625 23.019531 C 23.839844 23.0625 23.765625 23.0625 23.671875 23.019531 C 23.503906 23.019531 23.332031 23.019531 23.164062 23.019531 C 23.164062 22.996094 23.164062 22.96875 23.164062 22.945312 C 23.257812 22.964844 23.332031 22.9375 23.382812 22.871094 C 23.546875 22.902344 23.667969 22.855469 23.746094 22.726562 C 23.792969 22.726562 23.820312 22.703125 23.820312 22.65625 Z M 23.820312 22.65625 "/>
<path style=" stroke:none;fill-rule:evenodd;fill:rgb(55.294118%,34.117647%,32.941176%);fill-opacity:1;" d="M 22.144531 22.726562 C 22.195312 22.800781 22.242188 22.871094 22.292969 22.945312 C 22.015625 23.015625 21.722656 23.042969 21.417969 23.019531 C 21.636719 22.96875 21.855469 22.921875 22.074219 22.871094 C 22.132812 22.847656 22.15625 22.800781 22.144531 22.726562 Z M 22.144531 22.726562 "/>
<path style=" stroke:none;fill-rule:evenodd;fill:rgb(80.392157%,70.196078%,69.803922%);fill-opacity:1;" d="M 23.671875 23.019531 C 23.765625 23.0625 23.839844 23.0625 23.890625 23.019531 C 24.085938 23.019531 24.277344 23.019531 24.472656 23.019531 C 24.304688 23.066406 24.132812 23.117188 23.964844 23.164062 C 23.820312 23.1875 23.722656 23.140625 23.671875 23.019531 Z M 23.671875 23.019531 "/>
<path style=" stroke:none;fill-rule:evenodd;fill:rgb(61.176471%,43.529412%,42.745098%);fill-opacity:1;" d="M 24.472656 23.019531 C 24.972656 22.996094 25.457031 23.019531 25.925781 23.089844 C 25.5625 23.078125 25.199219 23.089844 24.835938 23.128906 C 25.164062 23.140625 25.480469 23.175781 25.78125 23.238281 C 25.171875 23.253906 24.566406 23.230469 23.964844 23.164062 C 24.132812 23.117188 24.304688 23.066406 24.472656 23.019531 Z M 24.472656 23.019531 "/>
<path style=" stroke:none;fill-rule:evenodd;fill:rgb(76.078431%,67.45098%,69.019608%);fill-opacity:1;" d="M 13.273438 22.800781 C 13.296875 22.738281 13.347656 22.714844 13.417969 22.726562 C 13.417969 22.777344 13.417969 22.824219 13.417969 22.871094 C 13.417969 22.96875 13.417969 23.066406 13.417969 23.164062 C 15.332031 23.171875 17.25 23.195312 19.164062 23.238281 C 19.171875 23.105469 19.148438 22.984375 19.089844 22.871094 C 19.222656 22.976562 19.269531 23.121094 19.238281 23.308594 C 18.386719 23.308594 17.539062 23.308594 16.691406 23.308594 C 15.734375 23.238281 14.765625 23.210938 13.78125 23.238281 C 13.636719 23.238281 13.492188 23.238281 13.34375 23.238281 C 13.367188 23.074219 13.34375 22.929688 13.273438 22.800781 Z M 13.273438 22.800781 "/>
<path style=" stroke:none;fill-rule:evenodd;fill:rgb(40.784314%,54.901961%,62.352941%);fill-opacity:1;" d="M 13.417969 22.871094 C 14.144531 22.871094 14.871094 22.871094 15.601562 22.871094 C 16.765625 22.871094 17.925781 22.871094 19.089844 22.871094 C 19.148438 22.984375 19.171875 23.105469 19.164062 23.238281 C 17.25 23.195312 15.332031 23.171875 13.417969 23.164062 C 13.417969 23.066406 13.417969 22.96875 13.417969 22.871094 Z M 13.417969 22.871094 "/>
<path style=" stroke:none;fill-rule:evenodd;fill:rgb(40.784314%,28.235294%,28.235294%);fill-opacity:1;" d="M 13.78125 23.238281 C 14.765625 23.210938 15.734375 23.238281 16.691406 23.308594 C 16.070312 23.285156 15.464844 23.308594 14.871094 23.382812 C 14.601562 23.359375 14.335938 23.382812 14.074219 23.453125 C 14.472656 23.503906 14.859375 23.550781 15.238281 23.601562 C 15.027344 23.578125 14.832031 23.601562 14.65625 23.671875 C 14.15625 23.695312 13.671875 23.671875 13.199219 23.601562 C 13.394531 23.601562 13.589844 23.601562 13.78125 23.601562 C 13.78125 23.480469 13.78125 23.359375 13.78125 23.238281 Z M 13.78125 23.238281 "/>
<path style=" stroke:none;fill-rule:evenodd;fill:rgb(16.078431%,10.980392%,10.980392%);fill-opacity:1;" d="M 25.925781 23.089844 C 26.234375 23.082031 26.523438 23.144531 26.800781 23.273438 C 26.941406 23.398438 27.015625 23.558594 27.019531 23.746094 C 27.035156 23.839844 27.011719 23.914062 26.945312 23.964844 C 26.847656 23.355469 26.484375 23.113281 25.855469 23.238281 C 25.832031 23.238281 25.804688 23.238281 25.78125 23.238281 C 25.480469 23.175781 25.164062 23.140625 24.835938 23.128906 C 25.199219 23.089844 25.5625 23.078125 25.925781 23.089844 Z M 25.925781 23.089844 "/>
<path style=" stroke:none;fill-rule:evenodd;fill:rgb(93.333333%,90.196078%,89.803922%);fill-opacity:1;" d="M 14.871094 23.382812 C 16.085938 23.382812 17.296875 23.382812 18.507812 23.382812 C 18.535156 23.527344 18.484375 23.625 18.363281 23.671875 C 17.335938 23.601562 16.292969 23.578125 15.238281 23.601562 C 14.859375 23.550781 14.472656 23.503906 14.074219 23.453125 C 14.335938 23.382812 14.601562 23.359375 14.871094 23.382812 Z M 14.871094 23.382812 "/>
<path style=" stroke:none;fill-rule:evenodd;fill:rgb(98.039216%,89.803922%,89.411765%);fill-opacity:1;" d="M 18.945312 23.382812 C 19.042969 23.382812 19.140625 23.382812 19.238281 23.382812 C 19.238281 23.480469 19.238281 23.574219 19.238281 23.671875 C 19.140625 23.671875 19.042969 23.671875 18.945312 23.671875 C 18.945312 23.574219 18.945312 23.480469 18.945312 23.382812 Z M 18.945312 23.382812 "/>
<path style=" stroke:none;fill-rule:evenodd;fill:rgb(97.254902%,90.588235%,90.196078%);fill-opacity:1;" d="M 25.855469 23.238281 C 26.484375 23.113281 26.847656 23.355469 26.945312 23.964844 C 26.945312 24.085938 26.945312 24.207031 26.945312 24.328125 C 26.871094 24.277344 26.800781 24.230469 26.726562 24.183594 C 26.75 23.953125 26.710938 23.734375 26.617188 23.527344 C 26.375 23.390625 26.121094 23.292969 25.855469 23.238281 Z M 25.855469 23.238281 "/>
<path style=" stroke:none;fill-rule:evenodd;fill:rgb(61.960784%,57.254902%,60%);fill-opacity:1;" d="M 18.65625 23.382812 C 18.726562 23.382812 18.800781 23.382812 18.871094 23.382812 C 18.871094 23.480469 18.871094 23.574219 18.871094 23.671875 C 18.800781 23.671875 18.726562 23.671875 18.65625 23.671875 C 18.65625 23.574219 18.65625 23.480469 18.65625 23.382812 Z M 18.65625 23.382812 "/>
<path style=" stroke:none;fill-rule:evenodd;fill:rgb(26.666667%,17.647059%,16.862745%);fill-opacity:1;" d="M 14.65625 23.671875 C 14.832031 23.601562 15.027344 23.578125 15.238281 23.601562 C 16.292969 23.578125 17.335938 23.601562 18.363281 23.671875 C 17.890625 23.648438 17.429688 23.671875 16.980469 23.746094 C 16.207031 23.738281 15.429688 23.710938 14.65625 23.671875 Z M 14.65625 23.671875 "/>
<path style=" stroke:none;fill-rule:evenodd;fill:rgb(24.705882%,14.117647%,13.72549%);fill-opacity:1;" d="M 13.273438 22.800781 C 13.34375 22.929688 13.367188 23.074219 13.34375 23.238281 C 13.492188 23.238281 13.636719 23.238281 13.78125 23.238281 C 13.78125 23.359375 13.78125 23.480469 13.78125 23.601562 C 13.589844 23.601562 13.394531 23.601562 13.199219 23.601562 C 13.1875 24.019531 13.1875 24.457031 13.199219 24.910156 C 13.222656 25.070312 13.199219 25.21875 13.128906 25.34375 C 13.066406 24.742188 13.042969 24.136719 13.054688 23.527344 C 13.25 23.527344 13.441406 23.527344 13.636719 23.527344 C 13.636719 23.453125 13.636719 23.382812 13.636719 23.308594 C 13.515625 23.308594 13.394531 23.308594 13.273438 23.308594 C 13.273438 23.140625 13.273438 22.96875 13.273438 22.800781 Z M 13.273438 22.800781 "/>
<path style=" stroke:none;fill-rule:evenodd;fill:rgb(15.686275%,7.45098%,6.666667%);fill-opacity:1;" d="M 26.726562 24.183594 C 26.800781 24.230469 26.871094 24.277344 26.945312 24.328125 C 27 24.414062 27.023438 24.511719 27.019531 24.617188 C 26.910156 24.449219 26.765625 24.316406 26.582031 24.21875 C 25.765625 24.0625 24.941406 24.015625 24.109375 24.074219 C 23.917969 24.121094 23.746094 24.207031 23.601562 24.328125 C 23.570312 24.332031 23.542969 24.320312 23.527344 24.292969 C 23.589844 24.238281 23.640625 24.179688 23.671875 24.109375 C 24.699219 23.8125 25.71875 23.835938 26.726562 24.183594 Z M 26.726562 24.183594 "/>
<path style=" stroke:none;fill-rule:evenodd;fill:rgb(98.039216%,35.294118%,33.333333%);fill-opacity:1;" d="M 27.019531 24.617188 C 27.082031 25.027344 27.105469 25.4375 27.089844 25.855469 C 25.832031 25.855469 24.570312 25.855469 23.308594 25.855469 C 23.308594 25.539062 23.308594 25.222656 23.308594 24.910156 C 23.300781 24.71875 23.351562 24.550781 23.453125 24.398438 C 23.527344 24.414062 23.574219 24.386719 23.601562 24.328125 C 23.746094 24.207031 23.917969 24.121094 24.109375 24.074219 C 24.941406 24.015625 25.765625 24.0625 26.582031 24.21875 C 26.765625 24.316406 26.910156 24.449219 27.019531 24.617188 Z M 27.019531 24.617188 "/>
<path style=" stroke:none;fill-rule:evenodd;fill:rgb(97.647059%,36.862745%,34.509804%);fill-opacity:1;" d="M 18.292969 24.546875 C 18.332031 24.785156 18.355469 25.027344 18.363281 25.273438 C 18.363281 25.441406 18.363281 25.613281 18.363281 25.78125 C 17.492188 25.78125 16.617188 25.78125 15.746094 25.78125 C 15.734375 25.417969 15.746094 25.054688 15.78125 24.691406 C 15.808594 24.550781 15.871094 24.429688 15.964844 24.328125 C 16.65625 24.242188 17.359375 24.253906 18.074219 24.363281 C 18.136719 24.441406 18.210938 24.5 18.292969 24.546875 Z M 18.292969 24.546875 "/>
<path style=" stroke:none;fill-rule:evenodd;fill:rgb(56.862745%,40.784314%,39.607843%);fill-opacity:1;" d="M 23.671875 24.109375 C 23.640625 24.179688 23.589844 24.238281 23.527344 24.292969 C 23.542969 24.320312 23.570312 24.332031 23.601562 24.328125 C 23.574219 24.386719 23.527344 24.414062 23.453125 24.398438 C 23.429688 24.398438 23.40625 24.398438 23.382812 24.398438 C 23.382812 24.375 23.382812 24.351562 23.382812 24.328125 C 23.4375 24.199219 23.535156 24.125 23.671875 24.109375 Z M 23.671875 24.109375 "/>
<path style=" stroke:none;fill-rule:evenodd;fill:rgb(16.470588%,8.627451%,7.843137%);fill-opacity:1;" d="M 18.292969 24.546875 C 18.210938 24.5 18.136719 24.441406 18.074219 24.363281 C 17.359375 24.253906 16.65625 24.242188 15.964844 24.328125 C 15.800781 24.378906 15.667969 24.476562 15.5625 24.617188 C 15.476562 25.027344 15.4375 25.4375 15.453125 25.855469 C 15.453125 25.878906 15.453125 25.902344 15.453125 25.925781 C 15.394531 25.902344 15.371094 25.855469 15.382812 25.78125 C 15.382812 25.734375 15.382812 25.683594 15.382812 25.636719 C 15.371094 25.320312 15.382812 25.003906 15.417969 24.691406 C 15.523438 24.402344 15.730469 24.21875 16.035156 24.144531 C 16.695312 24.089844 17.347656 24.113281 18 24.21875 C 18.164062 24.273438 18.261719 24.382812 18.292969 24.546875 Z M 18.292969 24.546875 "/>
<path style=" stroke:none;fill-rule:evenodd;fill:rgb(98.823529%,94.509804%,94.117647%);fill-opacity:1;" d="M 15.964844 24.328125 C 15.871094 24.429688 15.808594 24.550781 15.78125 24.691406 C 15.746094 25.054688 15.734375 25.417969 15.746094 25.78125 C 16.617188 25.78125 17.492188 25.78125 18.363281 25.78125 C 18.234375 25.851562 18.089844 25.875 17.925781 25.855469 C 17.371094 25.855469 16.8125 25.855469 16.253906 25.855469 C 15.988281 25.855469 15.722656 25.855469 15.453125 25.855469 C 15.4375 25.4375 15.476562 25.027344 15.5625 24.617188 C 15.667969 24.476562 15.800781 24.378906 15.964844 24.328125 Z M 15.964844 24.328125 "/>
<path style=" stroke:none;fill-rule:evenodd;fill:rgb(95.686275%,84.313725%,83.921569%);fill-opacity:1;" d="M 23.382812 24.328125 C 23.382812 24.351562 23.382812 24.375 23.382812 24.398438 C 23.289062 24.496094 23.226562 24.617188 23.199219 24.765625 C 23.207031 25.136719 23.148438 25.476562 23.019531 25.78125 C 22.929688 25.421875 22.941406 25.054688 23.054688 24.691406 C 23.097656 24.5 23.207031 24.378906 23.382812 24.328125 Z M 23.382812 24.328125 "/>
<path style=" stroke:none;fill-rule:evenodd;fill:rgb(19.215686%,7.843137%,7.058824%);fill-opacity:1;" d="M 18.292969 24.546875 C 18.394531 24.640625 18.445312 24.761719 18.4375 24.910156 C 18.457031 25.046875 18.433594 25.167969 18.363281 25.273438 C 18.355469 25.027344 18.332031 24.785156 18.292969 24.546875 Z M 18.292969 24.546875 "/>
<path style=" stroke:none;fill-rule:evenodd;fill:rgb(49.803922%,21.176471%,19.607843%);fill-opacity:1;" d="M 13.199219 24.910156 C 13.269531 25.136719 13.296875 25.378906 13.273438 25.636719 C 13.25 25.636719 13.222656 25.636719 13.199219 25.636719 C 13.148438 25.546875 13.121094 25.453125 13.128906 25.34375 C 13.199219 25.21875 13.222656 25.070312 13.199219 24.910156 Z M 13.199219 24.910156 "/>
<path style=" stroke:none;fill-rule:evenodd;fill:rgb(53.333333%,19.215686%,18.039216%);fill-opacity:1;" d="M 18.4375 24.910156 C 18.507812 25.160156 18.53125 25.429688 18.507812 25.710938 C 18.628906 25.710938 18.75 25.710938 18.871094 25.710938 C 18.871094 25.734375 18.871094 25.757812 18.871094 25.78125 C 18.703125 25.78125 18.535156 25.78125 18.363281 25.78125 C 18.363281 25.613281 18.363281 25.441406 18.363281 25.273438 C 18.433594 25.167969 18.457031 25.046875 18.4375 24.910156 Z M 18.4375 24.910156 "/>
<path style=" stroke:none;fill-rule:evenodd;fill:rgb(86.27451%,67.45098%,66.666667%);fill-opacity:1;" d="M 19.601562 25.492188 C 19.617188 25.613281 19.566406 25.6875 19.453125 25.710938 C 19.449219 25.597656 19.496094 25.527344 19.601562 25.492188 Z M 19.601562 25.492188 "/>
<path style=" stroke:none;fill-rule:evenodd;fill:rgb(38.823529%,21.960784%,21.176471%);fill-opacity:1;" d="M 14.65625 25.636719 C 14.898438 25.636719 15.140625 25.636719 15.382812 25.636719 C 15.382812 25.683594 15.382812 25.734375 15.382812 25.78125 C 14.785156 25.804688 14.203125 25.78125 13.636719 25.710938 C 13.988281 25.734375 14.328125 25.707031 14.65625 25.636719 Z M 14.65625 25.636719 "/>
<path style=" stroke:none;fill-rule:evenodd;fill:rgb(23.921569%,13.72549%,12.941176%);fill-opacity:1;" d="M 23.382812 24.398438 C 23.40625 24.398438 23.429688 24.398438 23.453125 24.398438 C 23.351562 24.550781 23.300781 24.71875 23.308594 24.910156 C 23.238281 25.234375 23.214844 25.574219 23.238281 25.925781 C 23.238281 25.953125 23.238281 25.976562 23.238281 26 C 22.089844 25.859375 20.925781 25.808594 19.746094 25.855469 C 19.46875 25.785156 19.179688 25.757812 18.871094 25.78125 C 18.871094 25.757812 18.871094 25.734375 18.871094 25.710938 C 19.066406 25.710938 19.261719 25.710938 19.453125 25.710938 C 19.566406 25.6875 19.617188 25.613281 19.601562 25.492188 C 20.644531 25.480469 21.683594 25.492188 22.726562 25.527344 C 22.789062 25.601562 22.8125 25.6875 22.800781 25.78125 C 22.871094 25.78125 22.945312 25.78125 23.019531 25.78125 C 23.148438 25.476562 23.207031 25.136719 23.199219 24.765625 C 23.226562 24.617188 23.289062 24.496094 23.382812 24.398438 Z M 23.382812 24.398438 "/>
<path style=" stroke:none;fill-rule:evenodd;fill:rgb(96.470588%,78.039216%,64.313725%);fill-opacity:1;" d="M 19.671875 25.5625 C 20.667969 25.605469 21.660156 25.644531 22.65625 25.671875 C 22.15625 25.683594 21.660156 25.695312 21.164062 25.710938 C 20.640625 25.710938 20.144531 25.660156 19.671875 25.5625 Z M 19.671875 25.5625 "/>
<path style=" stroke:none;fill-rule:evenodd;fill:rgb(16.862745%,12.156863%,12.54902%);fill-opacity:1;" d="M 13.199219 25.636719 C 13.222656 25.636719 13.25 25.636719 13.273438 25.636719 C 13.734375 25.636719 14.195312 25.636719 14.65625 25.636719 C 14.328125 25.707031 13.988281 25.734375 13.636719 25.710938 C 13.5625 25.710938 13.492188 25.710938 13.417969 25.710938 C 13.433594 25.828125 13.410156 25.9375 13.34375 26.035156 C 13.128906 26.074219 12.910156 26.085938 12.691406 26.074219 C 12.691406 25.976562 12.691406 25.878906 12.691406 25.78125 C 12.886719 25.792969 13.082031 25.78125 13.273438 25.746094 C 13.230469 25.71875 13.207031 25.679688 13.199219 25.636719 Z M 13.199219 25.636719 "/>
<path style=" stroke:none;fill-rule:evenodd;fill:rgb(52.941176%,37.647059%,37.254902%);fill-opacity:1;" d="M 15.453125 25.855469 C 15.722656 25.855469 15.988281 25.855469 16.253906 25.855469 C 16.085938 25.902344 15.914062 25.953125 15.746094 26 C 15.628906 26.019531 15.53125 25.996094 15.453125 25.925781 C 15.453125 25.902344 15.453125 25.878906 15.453125 25.855469 Z M 15.453125 25.855469 "/>
<path style=" stroke:none;fill-rule:evenodd;fill:rgb(20.392157%,12.156863%,12.156863%);fill-opacity:1;" d="M 16.253906 25.855469 C 16.8125 25.855469 17.371094 25.855469 17.925781 25.855469 C 17.925781 25.902344 17.925781 25.953125 17.925781 26 C 17.902344 26 17.878906 26 17.855469 26 C 17.222656 26 16.59375 26 15.964844 26 C 16.035156 26.359375 16.253906 26.578125 16.617188 26.65625 C 17.101562 26.71875 17.527344 26.597656 17.890625 26.292969 C 17.949219 26.199219 17.984375 26.105469 18 26 C 18.023438 25.902344 18.046875 25.902344 18.074219 26 C 18.0625 26.226562 17.964844 26.410156 17.78125 26.546875 C 16.890625 27.03125 16.210938 26.847656 15.746094 26 C 15.914062 25.953125 16.085938 25.902344 16.253906 25.855469 Z M 16.253906 25.855469 "/>
<path style=" stroke:none;fill-rule:evenodd;fill:rgb(54.117647%,38.823529%,38.823529%);fill-opacity:1;" d="M 18.363281 25.78125 C 18.535156 25.78125 18.703125 25.78125 18.871094 25.78125 C 19.179688 25.757812 19.46875 25.785156 19.746094 25.855469 C 19.171875 25.824219 18.617188 25.871094 18.074219 26 C 18.046875 25.902344 18.023438 25.902344 18 26 C 17.976562 26 17.953125 26 17.925781 26 C 17.925781 25.953125 17.925781 25.902344 17.925781 25.855469 C 18.089844 25.875 18.234375 25.851562 18.363281 25.78125 Z M 18.363281 25.78125 "/>
<path style=" stroke:none;fill-rule:evenodd;fill:rgb(99.215686%,85.098039%,84.705882%);fill-opacity:1;" d="M 23.308594 24.910156 C 23.308594 25.222656 23.308594 25.539062 23.308594 25.855469 C 24.570312 25.855469 25.832031 25.855469 27.089844 25.855469 C 25.820312 25.925781 24.535156 25.953125 23.238281 25.925781 C 23.214844 25.574219 23.238281 25.234375 23.308594 24.910156 Z M 23.308594 24.910156 "/>
<path style=" stroke:none;fill-rule:evenodd;fill:rgb(48.235294%,32.54902%,32.156863%);fill-opacity:1;" d="M 27.019531 23.746094 C 27.148438 24.457031 27.207031 25.1875 27.199219 25.925781 C 26.921875 26.066406 26.617188 26.113281 26.292969 26.074219 C 25.515625 25.976562 24.738281 25.976562 23.964844 26.074219 C 23.707031 26.097656 23.464844 26.070312 23.238281 26 C 23.238281 25.976562 23.238281 25.953125 23.238281 25.925781 C 24.535156 25.953125 25.820312 25.925781 27.089844 25.855469 C 27.105469 25.4375 27.082031 25.027344 27.019531 24.617188 C 27.023438 24.511719 27 24.414062 26.945312 24.328125 C 26.945312 24.207031 26.945312 24.085938 26.945312 23.964844 C 27.011719 23.914062 27.035156 23.839844 27.019531 23.746094 Z M 27.019531 23.746094 "/>
<path style=" stroke:none;fill-rule:evenodd;fill:rgb(0.784314%,0.392157%,0.392157%);fill-opacity:1;" d="M 23.964844 26.074219 C 24.738281 25.976562 25.515625 25.976562 26.292969 26.074219 C 26.292969 26.097656 26.292969 26.121094 26.292969 26.144531 C 25.59375 26.074219 24.890625 26.050781 24.183594 26.074219 C 24.15625 26.074219 24.132812 26.074219 24.109375 26.074219 C 24.0625 26.074219 24.011719 26.074219 23.964844 26.074219 Z M 23.964844 26.074219 "/>
<path style=" stroke:none;fill-rule:evenodd;fill:rgb(92.54902%,88.627451%,88.627451%);fill-opacity:1;" d="M 17.855469 26 C 17.878906 26 17.902344 26 17.925781 26 C 17.953125 26 17.976562 26 18 26 C 17.984375 26.105469 17.949219 26.199219 17.890625 26.292969 C 17.527344 26.597656 17.101562 26.71875 16.617188 26.65625 C 16.996094 26.621094 17.359375 26.511719 17.710938 26.328125 C 17.789062 26.230469 17.835938 26.121094 17.855469 26 Z M 17.855469 26 "/>
<path style=" stroke:none;fill-rule:evenodd;fill:rgb(45.882353%,55.686275%,61.960784%);fill-opacity:1;" d="M 24.183594 26.074219 C 24.890625 26.050781 25.59375 26.074219 26.292969 26.144531 C 26.304688 26.21875 26.28125 26.265625 26.21875 26.292969 C 26.222656 26.257812 26.210938 26.234375 26.183594 26.21875 C 26.089844 26.429688 25.933594 26.5625 25.710938 26.617188 C 25.238281 26.714844 24.804688 26.640625 24.398438 26.398438 C 24.300781 26.308594 24.226562 26.199219 24.183594 26.074219 Z M 24.183594 26.074219 "/>
<path style=" stroke:none;fill-rule:evenodd;fill:rgb(41.568627%,54.509804%,61.568627%);fill-opacity:1;" d="M 17.855469 26 C 17.835938 26.121094 17.789062 26.230469 17.710938 26.328125 C 17.359375 26.511719 16.996094 26.621094 16.617188 26.65625 C 16.253906 26.578125 16.035156 26.359375 15.964844 26 C 16.59375 26 17.222656 26 17.855469 26 Z M 17.855469 26 "/>
<path style=" stroke:none;fill-rule:evenodd;fill:rgb(20.392157%,12.54902%,12.156863%);fill-opacity:1;" d="M 24.109375 26.074219 C 24.132812 26.074219 24.15625 26.074219 24.183594 26.074219 C 24.226562 26.199219 24.300781 26.308594 24.398438 26.398438 C 24.804688 26.640625 25.238281 26.714844 25.710938 26.617188 C 25.933594 26.5625 26.089844 26.429688 26.183594 26.21875 C 26.210938 26.234375 26.222656 26.257812 26.21875 26.292969 C 26.160156 26.480469 26.039062 26.613281 25.855469 26.691406 C 25.34375 26.871094 24.859375 26.820312 24.398438 26.546875 C 24.238281 26.425781 24.140625 26.269531 24.109375 26.074219 Z M 24.109375 26.074219 "/>
<path style=" stroke:none;fill-rule:nonzero;fill:rgb(22.352941%,86.27451%,47.058824%);fill-opacity:1;" d="M 11.957031 17.171875 L 12.511719 17.171875 C 12.652344 17.171875 12.753906 17.203125 12.824219 17.269531 C 12.894531 17.335938 12.929688 17.433594 12.929688 17.5625 C 12.929688 17.628906 12.910156 17.691406 12.878906 17.742188 C 12.84375 17.796875 12.792969 17.835938 12.726562 17.863281 C 12.660156 17.894531 12.582031 17.90625 12.484375 17.90625 L 12.492188 17.808594 C 12.539062 17.808594 12.589844 17.816406 12.648438 17.828125 C 12.707031 17.839844 12.765625 17.863281 12.820312 17.894531 C 12.875 17.925781 12.917969 17.96875 12.957031 18.023438 C 12.992188 18.082031 13.007812 18.152344 13.007812 18.242188 C 13.007812 18.339844 12.992188 18.417969 12.960938 18.480469 C 12.929688 18.539062 12.890625 18.589844 12.839844 18.621094 C 12.785156 18.65625 12.730469 18.679688 12.671875 18.691406 C 12.613281 18.703125 12.558594 18.710938 12.503906 18.710938 L 11.957031 18.710938 C 11.917969 18.710938 11.886719 18.699219 11.859375 18.671875 C 11.835938 18.644531 11.820312 18.613281 11.820312 18.574219 L 11.820312 17.304688 C 11.820312 17.265625 11.835938 17.234375 11.859375 17.207031 C 11.886719 17.183594 11.917969 17.171875 11.957031 17.171875 Z M 12.46875 17.429688 L 12.078125 17.429688 L 12.109375 17.394531 L 12.109375 17.792969 L 12.082031 17.773438 L 12.476562 17.773438 C 12.519531 17.773438 12.558594 17.757812 12.589844 17.730469 C 12.625 17.703125 12.640625 17.664062 12.640625 17.609375 C 12.640625 17.546875 12.625 17.5 12.59375 17.472656 C 12.5625 17.445312 12.523438 17.429688 12.46875 17.429688 Z M 12.488281 18.03125 L 12.085938 18.03125 L 12.109375 18.015625 L 12.109375 18.480469 L 12.085938 18.457031 L 12.503906 18.457031 C 12.570312 18.457031 12.625 18.4375 12.664062 18.402344 C 12.703125 18.367188 12.722656 18.3125 12.722656 18.242188 C 12.722656 18.175781 12.710938 18.128906 12.683594 18.097656 C 12.65625 18.070312 12.625 18.050781 12.589844 18.042969 C 12.550781 18.035156 12.519531 18.03125 12.488281 18.03125 Z M 14.371094 18.121094 C 14.371094 18.242188 14.34375 18.347656 14.289062 18.441406 C 14.234375 18.53125 14.164062 18.605469 14.074219 18.65625 C 13.984375 18.707031 13.882812 18.730469 13.769531 18.730469 C 13.660156 18.730469 13.558594 18.707031 13.46875 18.65625 C 13.378906 18.605469 13.304688 18.53125 13.253906 18.441406 C 13.199219 18.347656 13.171875 18.242188 13.171875 18.121094 C 13.171875 18.003906 13.199219 17.898438 13.253906 17.804688 C 13.304688 17.714844 13.378906 17.640625 13.46875 17.589844 C 13.558594 17.539062 13.660156 17.511719 13.769531 17.511719 C 13.882812 17.511719 13.984375 17.539062 14.074219 17.589844 C 14.164062 17.640625 14.234375 17.714844 14.289062 17.804688 C 14.34375 17.898438 14.371094 18.003906 14.371094 18.121094 Z M 14.105469 18.121094 C 14.105469 18.046875 14.089844 17.984375 14.058594 17.929688 C 14.03125 17.875 13.988281 17.832031 13.9375 17.800781 C 13.886719 17.769531 13.832031 17.753906 13.769531 17.753906 C 13.710938 17.753906 13.652344 17.769531 13.601562 17.800781 C 13.550781 17.832031 13.511719 17.875 13.480469 17.929688 C 13.453125 17.984375 13.4375 18.046875 13.4375 18.121094 C 13.4375 18.195312 13.453125 18.261719 13.480469 18.316406 C 13.511719 18.371094 13.550781 18.414062 13.601562 18.445312 C 13.652344 18.476562 13.710938 18.492188 13.769531 18.492188 C 13.832031 18.492188 13.886719 18.476562 13.9375 18.445312 C 13.988281 18.414062 14.03125 18.371094 14.058594 18.316406 C 14.089844 18.261719 14.105469 18.195312 14.105469 18.121094 Z M 15.460938 17.53125 C 15.5 17.53125 15.53125 17.546875 15.558594 17.570312 C 15.582031 17.597656 15.59375 17.628906 15.59375 17.667969 L 15.59375 18.226562 C 15.59375 18.382812 15.550781 18.503906 15.464844 18.597656 C 15.378906 18.6875 15.253906 18.730469 15.089844 18.730469 C 14.929688 18.730469 14.804688 18.6875 14.71875 18.597656 C 14.632812 18.503906 14.589844 18.382812 14.589844 18.226562 L 14.589844 17.667969 C 14.589844 17.628906 14.601562 17.597656 14.625 17.570312 C 14.652344 17.546875 14.683594 17.53125 14.722656 17.53125 C 14.757812 17.53125 14.789062 17.546875 14.816406 17.570312 C 14.839844 17.597656 14.851562 17.628906 14.851562 17.667969 L 14.851562 18.226562 C 14.851562 18.316406 14.871094 18.382812 14.914062 18.425781 C 14.953125 18.46875 15.011719 18.492188 15.089844 18.492188 C 15.171875 18.492188 15.230469 18.46875 15.269531 18.425781 C 15.3125 18.382812 15.332031 18.316406 15.332031 18.226562 L 15.332031 17.667969 C 15.332031 17.628906 15.34375 17.597656 15.367188 17.570312 C 15.394531 17.546875 15.425781 17.53125 15.460938 17.53125 Z M 16.507812 17.511719 C 16.617188 17.511719 16.699219 17.535156 16.757812 17.578125 C 16.8125 17.625 16.851562 17.683594 16.875 17.761719 C 16.894531 17.835938 16.90625 17.921875 16.90625 18.011719 L 16.90625 18.574219 C 16.90625 18.613281 16.894531 18.644531 16.867188 18.671875 C 16.84375 18.699219 16.8125 18.710938 16.773438 18.710938 C 16.734375 18.710938 16.703125 18.699219 16.679688 18.671875 C 16.652344 18.644531 16.640625 18.613281 16.640625 18.574219 L 16.640625 18.011719 C 16.640625 17.964844 16.636719 17.921875 16.625 17.882812 C 16.609375 17.84375 16.589844 17.8125 16.554688 17.789062 C 16.523438 17.765625 16.476562 17.753906 16.417969 17.753906 C 16.359375 17.753906 16.308594 17.765625 16.269531 17.789062 C 16.230469 17.8125 16.199219 17.84375 16.175781 17.882812 C 16.15625 17.921875 16.144531 17.964844 16.144531 18.011719 L 16.144531 18.574219 C 16.144531 18.613281 16.132812 18.644531 16.105469 18.671875 C 16.082031 18.699219 16.050781 18.710938 16.011719 18.710938 C 15.972656 18.710938 15.941406 18.699219 15.917969 18.671875 C 15.894531 18.644531 15.878906 18.613281 15.878906 18.574219 L 15.878906 17.667969 C 15.878906 17.628906 15.894531 17.597656 15.917969 17.570312 C 15.941406 17.546875 15.972656 17.53125 16.011719 17.53125 C 16.050781 17.53125 16.082031 17.546875 16.105469 17.570312 C 16.132812 17.597656 16.144531 17.628906 16.144531 17.667969 L 16.144531 17.761719 L 16.113281 17.753906 C 16.125 17.730469 16.144531 17.703125 16.167969 17.675781 C 16.195312 17.648438 16.222656 17.621094 16.257812 17.59375 C 16.289062 17.570312 16.328125 17.550781 16.371094 17.535156 C 16.414062 17.519531 16.460938 17.511719 16.507812 17.511719 Z M 17.203125 17.554688 L 17.726562 17.554688 C 17.761719 17.554688 17.789062 17.566406 17.8125 17.589844 C 17.835938 17.613281 17.847656 17.644531 17.847656 17.679688 C 17.847656 17.710938 17.835938 17.742188 17.8125 17.761719 C 17.789062 17.785156 17.761719 17.796875 17.726562 17.796875 L 17.203125 17.796875 C 17.167969 17.796875 17.140625 17.785156 17.117188 17.761719 C 17.09375 17.738281 17.082031 17.710938 17.082031 17.675781 C 17.082031 17.640625 17.09375 17.613281 17.117188 17.589844 C 17.140625 17.566406 17.167969 17.554688 17.203125 17.554688 Z M 17.441406 17.28125 C 17.480469 17.28125 17.507812 17.292969 17.535156 17.320312 C 17.558594 17.34375 17.570312 17.375 17.570312 17.414062 L 17.570312 18.394531 C 17.570312 18.414062 17.574219 18.429688 17.582031 18.445312 C 17.589844 18.457031 17.601562 18.46875 17.613281 18.472656 C 17.628906 18.480469 17.644531 18.480469 17.660156 18.480469 C 17.679688 18.480469 17.695312 18.476562 17.707031 18.472656 C 17.722656 18.464844 17.742188 18.460938 17.757812 18.460938 C 17.78125 18.460938 17.796875 18.472656 17.816406 18.492188 C 17.832031 18.507812 17.839844 18.535156 17.839844 18.570312 C 17.839844 18.609375 17.820312 18.644531 17.773438 18.671875 C 17.730469 18.695312 17.679688 18.710938 17.628906 18.710938 C 17.597656 18.710938 17.566406 18.707031 17.527344 18.703125 C 17.488281 18.699219 17.453125 18.683594 17.421875 18.664062 C 17.386719 18.644531 17.359375 18.613281 17.339844 18.574219 C 17.316406 18.53125 17.304688 18.476562 17.304688 18.40625 L 17.304688 17.414062 C 17.304688 17.375 17.320312 17.34375 17.34375 17.320312 C 17.371094 17.292969 17.402344 17.28125 17.441406 17.28125 Z M 18.339844 17.667969 L 18.339844 18.574219 C 18.339844 18.613281 18.328125 18.644531 18.304688 18.671875 C 18.277344 18.699219 18.246094 18.710938 18.207031 18.710938 C 18.167969 18.710938 18.136719 18.699219 18.113281 18.671875 C 18.089844 18.644531 18.074219 18.613281 18.074219 18.574219 L 18.074219 17.667969 C 18.074219 17.628906 18.089844 17.597656 18.113281 17.570312 C 18.136719 17.546875 18.167969 17.53125 18.207031 17.53125 C 18.246094 17.53125 18.277344 17.546875 18.304688 17.570312 C 18.328125 17.597656 18.339844 17.628906 18.339844 17.667969 Z M 18.207031 17.390625 C 18.15625 17.390625 18.121094 17.382812 18.101562 17.367188 C 18.078125 17.351562 18.070312 17.320312 18.070312 17.28125 L 18.070312 17.238281 C 18.070312 17.195312 18.082031 17.167969 18.105469 17.152344 C 18.125 17.136719 18.160156 17.128906 18.207031 17.128906 C 18.257812 17.128906 18.296875 17.136719 18.316406 17.152344 C 18.335938 17.167969 18.347656 17.195312 18.347656 17.238281 L 18.347656 17.28125 C 18.347656 17.324219 18.335938 17.351562 18.3125 17.367188 C 18.292969 17.382812 18.257812 17.390625 18.207031 17.390625 Z M 19.214844 17.082031 C 19.246094 17.082031 19.28125 17.085938 19.308594 17.09375 C 19.339844 17.105469 19.367188 17.117188 19.386719 17.136719 C 19.40625 17.15625 19.417969 17.183594 19.417969 17.214844 C 19.417969 17.253906 19.40625 17.28125 19.386719 17.304688 C 19.363281 17.324219 19.339844 17.335938 19.3125 17.335938 C 19.300781 17.335938 19.28125 17.332031 19.253906 17.324219 C 19.226562 17.320312 19.199219 17.316406 19.175781 17.316406 C 19.140625 17.316406 19.113281 17.324219 19.089844 17.339844 C 19.070312 17.355469 19.058594 17.375 19.050781 17.394531 C 19.042969 17.417969 19.039062 17.4375 19.039062 17.453125 L 19.039062 18.574219 C 19.039062 18.613281 19.027344 18.644531 19.003906 18.671875 C 18.976562 18.699219 18.945312 18.710938 18.90625 18.710938 C 18.871094 18.710938 18.839844 18.699219 18.8125 18.671875 C 18.789062 18.644531 18.777344 18.613281 18.777344 18.574219 L 18.777344 17.453125 C 18.777344 17.351562 18.8125 17.261719 18.886719 17.191406 C 18.957031 17.117188 19.070312 17.082031 19.214844 17.082031 Z M 18.65625 17.554688 L 19.238281 17.554688 C 19.273438 17.554688 19.304688 17.566406 19.328125 17.589844 C 19.351562 17.613281 19.363281 17.640625 19.363281 17.675781 C 19.363281 17.710938 19.351562 17.742188 19.328125 17.761719 C 19.304688 17.785156 19.273438 17.796875 19.238281 17.796875 L 18.65625 17.796875 C 18.621094 17.796875 18.59375 17.785156 18.570312 17.761719 C 18.546875 17.742188 18.535156 17.710938 18.535156 17.675781 C 18.535156 17.640625 18.546875 17.613281 18.570312 17.589844 C 18.59375 17.566406 18.621094 17.554688 18.65625 17.554688 Z M 20.402344 17.53125 C 20.441406 17.53125 20.472656 17.546875 20.496094 17.570312 C 20.519531 17.597656 20.535156 17.628906 20.535156 17.667969 L 20.535156 18.226562 C 20.535156 18.382812 20.492188 18.503906 20.402344 18.597656 C 20.316406 18.6875 20.191406 18.730469 20.03125 18.730469 C 19.867188 18.730469 19.742188 18.6875 19.65625 18.597656 C 19.570312 18.503906 19.527344 18.382812 19.527344 18.226562 L 19.527344 17.667969 C 19.527344 17.628906 19.539062 17.597656 19.566406 17.570312 C 19.589844 17.546875 19.621094 17.53125 19.660156 17.53125 C 19.699219 17.53125 19.730469 17.546875 19.753906 17.570312 C 19.78125 17.597656 19.792969 17.628906 19.792969 17.667969 L 19.792969 18.226562 C 19.792969 18.316406 19.8125 18.382812 19.851562 18.425781 C 19.890625 18.46875 19.949219 18.492188 20.03125 18.492188 C 20.109375 18.492188 20.171875 18.46875 20.210938 18.425781 C 20.25 18.382812 20.269531 18.316406 20.269531 18.226562 L 20.269531 17.667969 C 20.269531 17.628906 20.28125 17.597656 20.308594 17.570312 C 20.332031 17.546875 20.363281 17.53125 20.402344 17.53125 Z M 21.105469 17.214844 L 21.105469 18.574219 C 21.105469 18.613281 21.09375 18.644531 21.066406 18.671875 C 21.042969 18.699219 21.007812 18.710938 20.972656 18.710938 C 20.933594 18.710938 20.902344 18.699219 20.878906 18.671875 C 20.855469 18.644531 20.839844 18.613281 20.839844 18.574219 L 20.839844 17.214844 C 20.839844 17.179688 20.855469 17.144531 20.878906 17.121094 C 20.90625 17.09375 20.9375 17.082031 20.976562 17.082031 C 21.015625 17.082031 21.046875 17.09375 21.070312 17.121094 C 21.09375 17.144531 21.105469 17.179688 21.105469 17.214844 Z M 22.191406 18.710938 C 22.148438 18.710938 22.117188 18.699219 22.089844 18.671875 C 22.0625 18.644531 22.050781 18.613281 22.050781 18.574219 L 22.050781 17.304688 C 22.050781 17.265625 22.0625 17.234375 22.089844 17.207031 C 22.117188 17.183594 22.148438 17.171875 22.1875 17.171875 L 22.902344 17.171875 C 22.9375 17.171875 22.972656 17.183594 22.996094 17.207031 C 23.023438 17.230469 23.035156 17.261719 23.035156 17.300781 C 23.035156 17.332031 23.023438 17.359375 22.996094 17.386719 C 22.972656 17.410156 22.9375 17.421875 22.902344 17.421875 L 22.308594 17.421875 L 22.328125 17.398438 L 22.328125 17.839844 L 22.3125 17.808594 L 22.800781 17.808594 C 22.839844 17.808594 22.871094 17.824219 22.898438 17.847656 C 22.921875 17.871094 22.9375 17.902344 22.9375 17.941406 C 22.9375 17.972656 22.921875 18 22.898438 18.027344 C 22.871094 18.050781 22.839844 18.0625 22.800781 18.0625 L 22.308594 18.0625 L 22.328125 18.042969 L 22.328125 18.574219 C 22.328125 18.613281 22.3125 18.644531 22.285156 18.671875 C 22.257812 18.699219 22.226562 18.710938 22.191406 18.710938 Z M 24.363281 18.121094 C 24.363281 18.242188 24.335938 18.347656 24.285156 18.441406 C 24.230469 18.53125 24.15625 18.605469 24.066406 18.65625 C 23.976562 18.707031 23.875 18.730469 23.765625 18.730469 C 23.652344 18.730469 23.554688 18.707031 23.460938 18.65625 C 23.371094 18.605469 23.300781 18.53125 23.246094 18.441406 C 23.195312 18.347656 23.167969 18.242188 23.167969 18.121094 C 23.167969 18.003906 23.195312 17.898438 23.246094 17.804688 C 23.300781 17.714844 23.371094 17.640625 23.460938 17.589844 C 23.554688 17.539062 23.652344 17.511719 23.765625 17.511719 C 23.875 17.511719 23.976562 17.539062 24.066406 17.589844 C 24.15625 17.640625 24.230469 17.714844 24.285156 17.804688 C 24.335938 17.898438 24.363281 18.003906 24.363281 18.121094 Z M 24.097656 18.121094 C 24.097656 18.046875 24.085938 17.984375 24.054688 17.929688 C 24.023438 17.875 23.984375 17.832031 23.933594 17.800781 C 23.882812 17.769531 23.828125 17.753906 23.765625 17.753906 C 23.703125 17.753906 23.648438 17.769531 23.597656 17.800781 C 23.546875 17.832031 23.507812 17.875 23.476562 17.929688 C 23.445312 17.984375 23.429688 18.046875 23.429688 18.121094 C 23.429688 18.195312 23.445312 18.261719 23.476562 18.316406 C 23.507812 18.371094 23.546875 18.414062 23.597656 18.445312 C 23.648438 18.476562 23.703125 18.492188 23.765625 18.492188 C 23.828125 18.492188 23.882812 18.476562 23.933594 18.445312 C 23.984375 18.414062 24.023438 18.371094 24.054688 18.316406 C 24.085938 18.261719 24.097656 18.195312 24.097656 18.121094 Z M 25.714844 18.121094 C 25.714844 18.242188 25.6875 18.347656 25.632812 18.441406 C 25.582031 18.53125 25.507812 18.605469 25.417969 18.65625 C 25.328125 18.707031 25.226562 18.730469 25.117188 18.730469 C 25.003906 18.730469 24.902344 18.707031 24.8125 18.65625 C 24.722656 18.605469 24.652344 18.53125 24.597656 18.441406 C 24.542969 18.347656 24.519531 18.242188 24.519531 18.121094 C 24.519531 18.003906 24.542969 17.898438 24.597656 17.804688 C 24.652344 17.714844 24.722656 17.640625 24.8125 17.589844 C 24.902344 17.539062 25.003906 17.511719 25.117188 17.511719 C 25.226562 17.511719 25.328125 17.539062 25.417969 17.589844 C 25.507812 17.640625 25.582031 17.714844 25.632812 17.804688 C 25.6875 17.898438 25.714844 18.003906 25.714844 18.121094 Z M 25.449219 18.121094 C 25.449219 18.046875 25.433594 17.984375 25.40625 17.929688 C 25.375 17.875 25.335938 17.832031 25.285156 17.800781 C 25.234375 17.769531 25.175781 17.753906 25.117188 17.753906 C 25.054688 17.753906 25 17.769531 24.949219 17.800781 C 24.898438 17.832031 24.855469 17.875 24.828125 17.929688 C 24.796875 17.984375 24.78125 18.046875 24.78125 18.121094 C 24.78125 18.195312 24.796875 18.261719 24.828125 18.316406 C 24.855469 18.371094 24.898438 18.414062 24.949219 18.445312 C 25 18.476562 25.054688 18.492188 25.117188 18.492188 C 25.175781 18.492188 25.234375 18.476562 25.285156 18.445312 C 25.335938 18.414062 25.375 18.371094 25.40625 18.316406 C 25.433594 18.261719 25.449219 18.195312 25.449219 18.121094 Z M 26.886719 17.082031 C 26.925781 17.082031 26.957031 17.09375 26.980469 17.121094 C 27.007812 17.144531 27.019531 17.175781 27.019531 17.214844 L 27.019531 18.574219 C 27.019531 18.613281 27.007812 18.644531 26.980469 18.671875 C 26.957031 18.699219 26.925781 18.710938 26.886719 18.710938 C 26.847656 18.710938 26.816406 18.699219 26.792969 18.671875 C 26.769531 18.644531 26.753906 18.613281 26.753906 18.574219 L 26.753906 18.46875 L 26.804688 18.488281 C 26.804688 18.507812 26.792969 18.53125 26.773438 18.558594 C 26.753906 18.585938 26.722656 18.609375 26.6875 18.636719 C 26.652344 18.664062 26.613281 18.6875 26.566406 18.703125 C 26.515625 18.722656 26.464844 18.730469 26.410156 18.730469 C 26.308594 18.730469 26.21875 18.707031 26.136719 18.65625 C 26.050781 18.601562 25.988281 18.53125 25.941406 18.4375 C 25.890625 18.347656 25.867188 18.242188 25.867188 18.121094 C 25.867188 18.003906 25.890625 17.898438 25.941406 17.804688 C 25.988281 17.714844 26.050781 17.640625 26.132812 17.589844 C 26.214844 17.539062 26.300781 17.511719 26.402344 17.511719 C 26.464844 17.511719 26.523438 17.519531 26.574219 17.539062 C 26.628906 17.558594 26.671875 17.582031 26.710938 17.613281 C 26.75 17.640625 26.78125 17.671875 26.800781 17.703125 C 26.824219 17.730469 26.835938 17.757812 26.835938 17.777344 L 26.753906 17.804688 L 26.753906 17.214844 C 26.753906 17.179688 26.769531 17.144531 26.792969 17.121094 C 26.816406 17.09375 26.847656 17.082031 26.886719 17.082031 Z M 26.441406 18.492188 C 26.507812 18.492188 26.5625 18.472656 26.613281 18.441406 C 26.660156 18.410156 26.699219 18.367188 26.726562 18.308594 C 26.753906 18.253906 26.765625 18.191406 26.765625 18.121094 C 26.765625 18.050781 26.753906 17.988281 26.726562 17.933594 C 26.699219 17.878906 26.660156 17.832031 26.613281 17.800781 C 26.5625 17.769531 26.507812 17.753906 26.441406 17.753906 C 26.378906 17.753906 26.324219 17.769531 26.277344 17.800781 C 26.226562 17.832031 26.1875 17.878906 26.164062 17.933594 C 26.136719 17.988281 26.121094 18.050781 26.121094 18.121094 C 26.121094 18.191406 26.136719 18.253906 26.164062 18.308594 C 26.1875 18.367188 26.226562 18.410156 26.277344 18.441406 C 26.324219 18.472656 26.378906 18.492188 26.441406 18.492188 Z M 27.238281 18.527344 C 27.222656 18.507812 27.214844 18.480469 27.21875 18.449219 C 27.21875 18.417969 27.238281 18.386719 27.273438 18.363281 C 27.296875 18.351562 27.324219 18.34375 27.347656 18.347656 C 27.375 18.347656 27.402344 18.363281 27.425781 18.386719 C 27.46875 18.429688 27.511719 18.460938 27.558594 18.484375 C 27.605469 18.507812 27.664062 18.519531 27.738281 18.519531 C 27.757812 18.519531 27.78125 18.515625 27.808594 18.511719 C 27.835938 18.507812 27.859375 18.496094 27.878906 18.476562 C 27.898438 18.457031 27.90625 18.429688 27.90625 18.390625 C 27.90625 18.359375 27.898438 18.332031 27.875 18.3125 C 27.851562 18.296875 27.824219 18.277344 27.789062 18.265625 C 27.753906 18.253906 27.710938 18.238281 27.667969 18.226562 C 27.621094 18.214844 27.574219 18.199219 27.527344 18.183594 C 27.480469 18.167969 27.4375 18.148438 27.398438 18.121094 C 27.359375 18.097656 27.324219 18.0625 27.300781 18.019531 C 27.277344 17.976562 27.261719 17.921875 27.261719 17.859375 C 27.261719 17.785156 27.285156 17.722656 27.324219 17.671875 C 27.367188 17.621094 27.417969 17.582031 27.484375 17.554688 C 27.550781 17.523438 27.617188 17.511719 27.691406 17.511719 C 27.734375 17.511719 27.785156 17.515625 27.832031 17.527344 C 27.882812 17.539062 27.929688 17.554688 27.976562 17.582031 C 28.023438 17.605469 28.058594 17.636719 28.089844 17.675781 C 28.105469 17.699219 28.117188 17.722656 28.121094 17.753906 C 28.121094 17.785156 28.109375 17.8125 28.078125 17.839844 C 28.054688 17.855469 28.03125 17.863281 28 17.863281 C 27.972656 17.859375 27.945312 17.851562 27.925781 17.832031 C 27.902344 17.800781 27.871094 17.773438 27.828125 17.753906 C 27.785156 17.734375 27.738281 17.726562 27.683594 17.726562 C 27.660156 17.726562 27.636719 17.730469 27.613281 17.734375 C 27.585938 17.738281 27.5625 17.75 27.542969 17.765625 C 27.527344 17.785156 27.515625 17.8125 27.515625 17.847656 C 27.515625 17.882812 27.527344 17.910156 27.550781 17.929688 C 27.570312 17.949219 27.601562 17.964844 27.636719 17.976562 C 27.675781 17.988281 27.714844 18 27.757812 18.011719 C 27.800781 18.023438 27.847656 18.039062 27.890625 18.054688 C 27.9375 18.070312 27.980469 18.09375 28.019531 18.117188 C 28.054688 18.144531 28.085938 18.179688 28.109375 18.222656 C 28.132812 18.261719 28.144531 18.316406 28.144531 18.378906 C 28.144531 18.453125 28.125 18.519531 28.078125 18.570312 C 28.035156 18.625 27.980469 18.664062 27.914062 18.691406 C 27.847656 18.71875 27.78125 18.730469 27.710938 18.730469 C 27.625 18.730469 27.539062 18.71875 27.453125 18.6875 C 27.367188 18.65625 27.292969 18.605469 27.238281 18.527344 Z M 27.238281 18.527344 "/>
</g>
</svg>
