<svg xmlns="http://www.w3.org/2000/svg" xmlns:xlink="http://www.w3.org/1999/xlink" version="1.1" width="1000" height="1000" viewBox="0 0 1000 1000" xml:space="preserve">
<desc>Created with Fabric.js 3.5.0</desc>
<defs>
</defs>
<rect x="0" y="0" width="100%" height="100%" fill="#ffffff"/>
<g transform="matrix(1.9583 0 0 1.9583 500.6861 500.6861)" id="604053">
<g style="" vector-effect="non-scaling-stroke">
		<g transform="matrix(1 0 0 1 -0.5 -0.5)" id="448996">
<path style="stroke: none; stroke-width: 1; stroke-dasharray: none; stroke-linecap: butt; stroke-dashoffset: 0; stroke-linejoin: miter; stroke-miterlimit: 4; is-custom-font: none; font-file-url: none; fill: rgb(254,254,254); fill-rule: evenodd; opacity: 1;" transform=" translate(-249.5, -249.5)" d="M -0.5 -0.5 C 166.167 -0.5 332.833 -0.5 499.5 -0.5 C 499.5 166.167 499.5 332.833 499.5 499.5 C 332.833 499.5 166.167 499.5 -0.5 499.5 C -0.5 332.833 -0.5 166.167 -0.5 -0.5 Z" stroke-linecap="round"/>
</g>
		<g transform="matrix(1 0 0 1 -71.4909 -56.5)" id="346833">
<path style="stroke: none; stroke-width: 1; stroke-dasharray: none; stroke-linecap: butt; stroke-dashoffset: 0; stroke-linejoin: miter; stroke-miterlimit: 4; is-custom-font: none; font-file-url: none; fill: rgb(72,111,45); fill-rule: evenodd; opacity: 1;" transform=" translate(-178.509, -193.5)" d="M 185.5 188.5 C 180.491 192.21 176.158 196.543 172.5 201.5 C 171.387 200.054 171.22 198.387 172 196.5 C 173.924 194.991 175.091 192.991 175.5 190.5 C 178.128 189.534 180.128 187.868 181.5 185.5 C 182.852 186.524 184.185 187.524 185.5 188.5 Z" stroke-linecap="round"/>
</g>
		<g transform="matrix(1 0 0 1 -68 -53.25)" id="845603">
<path style="stroke: none; stroke-width: 1; stroke-dasharray: none; stroke-linecap: butt; stroke-dashoffset: 0; stroke-linejoin: miter; stroke-miterlimit: 4; is-custom-font: none; font-file-url: none; fill: rgb(135,191,60); fill-rule: evenodd; opacity: 1;" transform=" translate(-182, -196.75)" d="M 185.5 188.5 C 185.833 188.5 186.167 188.5 186.5 188.5 C 187.802 190.028 189.469 191.028 191.5 191.5 C 190.699 193.042 190.366 194.708 190.5 196.5 C 188.641 197.594 186.641 198.427 184.5 199 C 183.663 200.011 183.33 201.178 183.5 202.5 C 180.394 203.413 177.394 204.246 174.5 205 C 177.833 201 181.5 197.333 185.5 194 C 185.167 193.833 184.833 193.667 184.5 193.5 C 180.144 196.533 176.144 199.866 172.5 203.5 C 172.5 202.833 172.5 202.167 172.5 201.5 C 176.158 196.543 180.491 192.21 185.5 188.5 Z" stroke-linecap="round"/>
</g>
		<g transform="matrix(1 0 0 1 -60.5222 -60.0295)" id="963615">
<path style="stroke: none; stroke-width: 1; stroke-dasharray: none; stroke-linecap: butt; stroke-dashoffset: 0; stroke-linejoin: miter; stroke-miterlimit: 4; is-custom-font: none; font-file-url: none; fill: rgb(77,105,41); fill-rule: evenodd; opacity: 1;" transform=" translate(-189.4778, -189.9706)" d="M 186.5 188.5 C 188.199 188.34 189.866 188.506 191.5 189 C 192.774 189.977 192.774 190.811 191.5 191.5 C 189.469 191.028 187.802 190.028 186.5 188.5 Z" stroke-linecap="round"/>
</g>
		<g transform="matrix(1 0 0 1 31 -53.5794)" id="963938">
<path style="stroke: none; stroke-width: 1; stroke-dasharray: none; stroke-linecap: butt; stroke-dashoffset: 0; stroke-linejoin: miter; stroke-miterlimit: 4; is-custom-font: none; font-file-url: none; fill: rgb(252,237,236); fill-rule: evenodd; opacity: 1;" transform=" translate(-281, -196.4206)" d="M 315.5 201.5 C 314.158 200.207 312.491 199.374 310.5 199 C 303.58 197.26 296.58 195.926 289.5 195 C 272.509 193.925 255.509 193.091 238.5 192.5 C 239.134 191.053 240.301 190.387 242 190.5 C 260.184 191.27 278.351 192.437 296.5 194 C 304.382 194.702 312.049 196.369 319.5 199 C 320.833 200 322.167 201 323.5 202 C 320.779 202.602 318.113 202.435 315.5 201.5 Z" stroke-linecap="round"/>
</g>
		<g transform="matrix(1 0 0 1 -0.8349 -2.4398)" id="763174">
<path style="stroke: none; stroke-width: 1; stroke-dasharray: none; stroke-linecap: butt; stroke-dashoffset: 0; stroke-linejoin: miter; stroke-miterlimit: 4; is-custom-font: none; font-file-url: none; fill: rgb(250,92,86); fill-rule: evenodd; opacity: 1;" transform=" translate(-249.1651, -247.5602)" d="M 238.5 192.5 C 255.509 193.091 272.509 193.925 289.5 195 C 296.58 195.926 303.58 197.26 310.5 199 C 312.491 199.374 314.158 200.207 315.5 201.5 C 312.813 201.336 310.146 201.503 307.5 202 C 306.944 202.383 306.611 202.883 306.5 203.5 C 305.5 203.5 304.5 203.5 303.5 203.5 C 303.254 215.771 305.754 227.438 311 238.5 C 312.648 239.717 314.481 240.55 316.5 241 C 321.823 241.499 327.156 241.666 332.5 241.5 C 332.5 242.5 332.5 243.5 332.5 244.5 C 342.473 245.366 352.473 245.699 362.5 245.5 C 370.33 246.435 378.33 247.101 386.5 247.5 C 398.22 248.909 403.22 255.575 401.5 267.5 C 397.089 265.308 392.423 263.808 387.5 263 C 373.197 260.525 358.864 260.192 344.5 262 C 340.616 262.864 336.949 264.03 333.5 265.5 C 326.318 267.181 321.484 271.514 319 278.5 C 317.679 286.439 317.179 294.439 317.5 302.5 C 316.833 302.5 316.167 302.5 315.5 302.5 C 314.5 302.5 313.5 302.5 312.5 302.5 C 312.714 300.856 312.38 299.356 311.5 298 C 288.153 296.233 264.82 296.066 241.5 297.5 C 239.088 297.694 238.088 299.027 238.5 301.5 C 231.352 302.492 224.019 302.825 216.5 302.5 C 216.193 296.907 216.527 291.407 217.5 286 C 216.956 285.283 216.289 284.783 215.5 284.5 C 215.317 273.281 209.65 267.448 198.5 267 C 184.786 266.094 171.119 266.427 157.5 268 C 152.18 270.15 148.847 273.983 147.5 279.5 C 145.925 286.27 145.259 293.27 145.5 300.5 C 143.167 300.5 140.833 300.5 138.5 300.5 C 125.185 299.667 111.851 299.334 98.5 299.5 C 98.8199 284.77 98.1532 270.103 96.5 255.5 C 101.5 255.5 106.5 255.5 111.5 255.5 C 112.5 255.5 113.5 255.5 114.5 255.5 C 129.97 257.117 145.637 257.784 161.5 257.5 C 185.833 257.5 210.167 257.5 234.5 257.5 C 235.358 238.514 235.691 219.514 235.5 200.5 C 236.5 197.833 237.5 195.167 238.5 192.5 Z" stroke-linecap="round"/>
</g>
		<g transform="matrix(1 0 0 1 -128.5 -56)" id="477956">
<path style="stroke: none; stroke-width: 1; stroke-dasharray: none; stroke-linecap: butt; stroke-dashoffset: 0; stroke-linejoin: miter; stroke-miterlimit: 4; is-custom-font: none; font-file-url: none; fill: rgb(120,156,58); fill-rule: evenodd; opacity: 1;" transform=" translate(-121.5, -194)" d="M 132.5 203.5 C 128.492 206.232 124.159 208.232 119.5 209.5 C 116.672 207.922 113.672 206.589 110.5 205.5 C 111.609 204.71 112.942 204.21 114.5 204 C 112.27 201.937 109.603 200.604 106.5 200 C 117.946 200.408 118.279 198.408 107.5 194 C 110.228 192.914 112.894 192.58 115.5 193 C 112.833 190.333 110.167 187.667 107.5 185 C 110.719 185.502 113.552 187.002 116 189.5 C 115.722 185.861 115.722 182.194 116 178.5 C 117.632 182.346 118.966 186.346 120 190.5 C 120.231 186.416 120.898 182.416 122 178.5 C 122.333 181.167 122.667 183.833 123 186.5 C 124 186.5 125 186.5 126 186.5 C 126.37 189.28 127.37 191.28 129 192.5 C 133.991 185.814 134.491 186.148 130.5 193.5 C 131.242 194.287 132.075 194.953 133 195.5 C 136.11 194.327 136.277 194.827 133.5 197 C 135.797 198.16 135.464 199.16 132.5 200 C 133.833 200.333 135.167 200.667 136.5 201 C 134.68 201.2 133.347 202.034 132.5 203.5 Z" stroke-linecap="round"/>
</g>
		<g transform="matrix(1 0 0 1 -68.6374 -49.5)" id="609273">
<path style="stroke: none; stroke-width: 1; stroke-dasharray: none; stroke-linecap: butt; stroke-dashoffset: 0; stroke-linejoin: miter; stroke-miterlimit: 4; is-custom-font: none; font-file-url: none; fill: rgb(72,109,44); fill-rule: evenodd; opacity: 1;" transform=" translate(-181.3626, -200.5)" d="M 190.5 196.5 C 191.729 199.448 191.396 202.281 189.5 205 C 184.357 205.838 179.357 206.672 174.5 207.5 C 173.5 207.5 172.5 207.5 171.5 207.5 C 171.5 206.5 171.5 205.5 171.5 204.5 C 172.167 204.5 172.5 204.167 172.5 203.5 C 176.144 199.866 180.144 196.533 184.5 193.5 C 184.833 193.667 185.167 193.833 185.5 194 C 181.5 197.333 177.833 201 174.5 205 C 177.394 204.246 180.394 203.413 183.5 202.5 C 183.33 201.178 183.663 200.011 184.5 199 C 186.641 198.427 188.641 197.594 190.5 196.5 Z" stroke-linecap="round"/>
</g>
		<g transform="matrix(1 0 0 1 -82.9739 -22)" id="55248">
<path style="stroke: none; stroke-width: 1; stroke-dasharray: none; stroke-linecap: butt; stroke-dashoffset: 0; stroke-linejoin: miter; stroke-miterlimit: 4; is-custom-font: none; font-file-url: none; fill: rgb(26,18,18); fill-rule: evenodd; opacity: 1;" transform=" translate(-167.0261, -228)" d="M 234.5 198.5 C 235.338 198.842 235.672 199.508 235.5 200.5 C 235.691 219.514 235.358 238.514 234.5 257.5 C 210.167 257.5 185.833 257.5 161.5 257.5 C 146.009 256.386 130.343 255.719 114.5 255.5 C 113.5 255.5 112.5 255.5 111.5 255.5 C 107.353 254.675 103.019 254.175 98.5 254 C 101.817 253.502 105.15 253.335 108.5 253.5 C 108.5 251.5 108.5 249.5 108.5 247.5 C 105.833 247.5 103.167 247.5 100.5 247.5 C 99.3567 244.024 99.1901 240.358 100 236.5 C 102.381 235.565 104.881 235.232 107.5 235.5 C 107.286 233.856 107.62 232.356 108.5 231 C 105.833 230.667 103.167 230.333 100.5 230 C 99.1667 226 99.1667 222 100.5 218 C 103.146 217.503 105.813 217.336 108.5 217.5 C 108.337 215.143 108.503 212.81 109 210.5 C 109.671 209.748 110.504 209.414 111.5 209.5 C 113.886 209.259 115.886 209.925 117.5 211.5 C 117.5 213.5 117.5 215.5 117.5 217.5 C 127.167 217.5 136.833 217.5 146.5 217.5 C 148.5 217.5 150.5 217.5 152.5 217.5 C 159.833 217.5 167.167 217.5 174.5 217.5 C 181.167 217.5 187.833 217.5 194.5 217.5 C 200.409 218.455 206.409 218.789 212.5 218.5 C 214.167 218.5 215.833 218.5 217.5 218.5 C 217.5 216.167 217.5 213.833 217.5 211.5 C 217.5 211.167 217.5 210.833 217.5 210.5 C 225.218 207.233 228.218 209.9 226.5 218.5 C 228.5 218.5 230.5 218.5 232.5 218.5 C 232.201 211.713 232.868 205.046 234.5 198.5 Z" stroke-linecap="round"/>
</g>
		<g transform="matrix(1 0 0 1 -45 -47.5)" id="747874">
<path style="stroke: none; stroke-width: 1; stroke-dasharray: none; stroke-linecap: butt; stroke-dashoffset: 0; stroke-linejoin: miter; stroke-miterlimit: 4; is-custom-font: none; font-file-url: none; fill: rgb(112,157,133); fill-rule: evenodd; opacity: 1;" transform=" translate(-205, -202.5)" d="M 214.5 203.5 C 212.508 203.328 210.842 203.995 209.5 205.5 C 206.701 203.182 204.034 203.515 201.5 206.5 C 200.289 205.726 200.289 204.893 201.5 204 C 199.26 202.193 196.927 202.026 194.5 203.5 C 196.729 201.013 199.562 199.346 203 198.5 C 205.949 198.99 209.116 199.823 212.5 201 C 213.672 201.419 214.672 202.085 215.5 203 C 215.272 203.399 214.938 203.565 214.5 203.5 Z" stroke-linecap="round"/>
</g>
		<g transform="matrix(1 0 0 1 -86.0324 -39.964)" id="432946">
<path style="stroke: none; stroke-width: 1; stroke-dasharray: none; stroke-linecap: butt; stroke-dashoffset: 0; stroke-linejoin: miter; stroke-miterlimit: 4; is-custom-font: none; font-file-url: none; fill: rgb(230,122,15); fill-rule: evenodd; opacity: 1;" transform=" translate(-163.9676, -210.036)" d="M 171.5 204.5 C 171.5 205.5 171.5 206.5 171.5 207.5 C 172.5 207.5 173.5 207.5 174.5 207.5 C 175.747 210.799 175.747 214.133 174.5 217.5 C 167.167 217.5 159.833 217.5 152.5 217.5 C 155.308 212.068 158.974 207.235 163.5 203 C 166.498 202.109 169.164 202.609 171.5 204.5 Z" stroke-linecap="round"/>
</g>
		<g transform="matrix(1 0 0 1 -44.4999 -39.4463)" id="603301">
<path style="stroke: none; stroke-width: 1; stroke-dasharray: none; stroke-linecap: butt; stroke-dashoffset: 0; stroke-linejoin: miter; stroke-miterlimit: 4; is-custom-font: none; font-file-url: none; fill: rgb(232,59,69); fill-rule: evenodd; opacity: 1;" transform=" translate(-205.5001, -210.5537)" d="M 214.5 203.5 C 216.312 205.461 217.312 207.794 217.5 210.5 C 217.5 210.833 217.5 211.167 217.5 211.5 C 215.6 213.619 213.934 215.953 212.5 218.5 C 206.409 218.789 200.409 218.455 194.5 217.5 C 193.167 212.833 193.167 208.167 194.5 203.5 C 196.927 202.026 199.26 202.193 201.5 204 C 200.289 204.893 200.289 205.726 201.5 206.5 C 204.034 203.515 206.701 203.182 209.5 205.5 C 210.842 203.995 212.508 203.328 214.5 203.5 Z" stroke-linecap="round"/>
</g>
		<g transform="matrix(1 0 0 1 25.7849 -28.4237)" id="338437">
<path style="stroke: none; stroke-width: 1; stroke-dasharray: none; stroke-linecap: butt; stroke-dashoffset: 0; stroke-linejoin: miter; stroke-miterlimit: 4; is-custom-font: none; font-file-url: none; fill: rgb(34,23,22); fill-rule: evenodd; opacity: 1;" transform=" translate(-275.7849, -221.5763)" d="M 298.5 240.5 C 285.167 240.5 271.833 240.5 258.5 240.5 C 257.5 239.833 256.5 239.167 255.5 238.5 C 257.099 238.768 258.432 238.434 259.5 237.5 C 272.192 237.268 284.859 237.602 297.5 238.5 C 298.725 237.848 299.392 236.681 299.5 235 C 299.17 226.343 297.003 218.176 293 210.5 C 289.935 207.051 286.102 205.384 281.5 205.5 C 276.025 204.511 270.358 204.178 264.5 204.5 C 260.833 204.5 257.167 204.5 253.5 204.5 C 252.508 204.328 251.842 204.662 251.5 205.5 C 251.828 217.012 251.495 228.346 250.5 239.5 C 249.612 227.86 249.279 216.193 249.5 204.5 C 262.034 201.88 274.701 202.047 287.5 205 C 290.726 206.198 293.559 208.031 296 210.5 C 301.407 220.111 303.241 230.111 301.5 240.5 C 300.5 240.5 299.5 240.5 298.5 240.5 Z" stroke-linecap="round"/>
</g>
		<g transform="matrix(1 0 0 1 85.4918 -25.451)" id="366070">
<path style="stroke: none; stroke-width: 1; stroke-dasharray: none; stroke-linecap: butt; stroke-dashoffset: 0; stroke-linejoin: miter; stroke-miterlimit: 4; is-custom-font: none; font-file-url: none; fill: rgb(250,238,237); fill-rule: evenodd; opacity: 1;" transform=" translate(-335.4917, -224.549)" d="M 306.5 203.5 C 307.06 211.251 308.226 218.918 310 226.5 C 310.903 230.805 312.737 234.639 315.5 238 C 325.049 239.618 334.383 241.618 343.5 244 C 351.493 244.5 359.493 244.666 367.5 244.5 C 366.081 245.451 364.415 245.784 362.5 245.5 C 352.473 245.699 342.473 245.366 332.5 244.5 C 332.5 243.5 332.5 242.5 332.5 241.5 C 327.156 241.666 321.823 241.499 316.5 241 C 314.481 240.55 312.648 239.717 311 238.5 C 305.754 227.438 303.254 215.771 303.5 203.5 C 304.5 203.5 305.5 203.5 306.5 203.5 Z" stroke-linecap="round"/>
</g>
		<g transform="matrix(1 0 0 1 -118 -39.5)" id="175727">
<path style="stroke: none; stroke-width: 1; stroke-dasharray: none; stroke-linecap: butt; stroke-dashoffset: 0; stroke-linejoin: miter; stroke-miterlimit: 4; is-custom-font: none; font-file-url: none; fill: rgb(218,167,55); fill-rule: evenodd; opacity: 1;" transform=" translate(-132, -210.5)" d="M 132.5 203.5 C 140.126 205.126 144.793 209.792 146.5 217.5 C 136.833 217.5 127.167 217.5 117.5 217.5 C 117.5 215.5 117.5 213.5 117.5 211.5 C 118.167 210.833 118.833 210.167 119.5 209.5 C 124.159 208.232 128.492 206.232 132.5 203.5 Z" stroke-linecap="round"/>
</g>
		<g transform="matrix(1 0 0 1 23 -26.9914)" id="133540">
<path style="stroke: none; stroke-width: 1; stroke-dasharray: none; stroke-linecap: butt; stroke-dashoffset: 0; stroke-linejoin: miter; stroke-miterlimit: 4; is-custom-font: none; font-file-url: none; fill: rgb(244,231,231); fill-rule: evenodd; opacity: 1;" transform=" translate(-273, -223.0086)" d="M 249.5 204.5 C 249.279 216.193 249.612 227.86 250.5 239.5 C 252.948 240.473 255.615 240.806 258.5 240.5 C 271.833 240.5 285.167 240.5 298.5 240.5 C 282.005 241.662 265.338 241.828 248.5 241 C 247.843 234.911 247.51 228.744 247.5 222.5 C 247.504 216.128 248.171 210.128 249.5 204.5 Z" stroke-linecap="round"/>
</g>
		<g transform="matrix(1 0 0 1 5.5 -28.4772)" id="152238">
<path style="stroke: none; stroke-width: 1; stroke-dasharray: none; stroke-linecap: butt; stroke-dashoffset: 0; stroke-linejoin: miter; stroke-miterlimit: 4; is-custom-font: none; font-file-url: none; fill: rgb(254,255,254); fill-rule: evenodd; opacity: 1;" transform=" translate(-255.5, -221.5228)" d="M 251.5 205.5 C 251.842 204.662 252.508 204.328 253.5 204.5 C 253.5 215.5 253.5 226.5 253.5 237.5 C 255.5 237.5 257.5 237.5 259.5 237.5 C 258.432 238.434 257.099 238.768 255.5 238.5 C 254.5 238.5 253.5 238.5 252.5 238.5 C 252.828 227.321 252.495 216.321 251.5 205.5 Z" stroke-linecap="round"/>
</g>
		<g transform="matrix(1 0 0 1 26.5 -28.5)" id="481791">
<path style="stroke: none; stroke-width: 1; stroke-dasharray: none; stroke-linecap: butt; stroke-dashoffset: 0; stroke-linejoin: miter; stroke-miterlimit: 4; is-custom-font: none; font-file-url: none; fill: rgb(250,222,179); fill-rule: evenodd; opacity: 1;" transform=" translate(-276.5, -221.5)" d="M 253.5 204.5 C 257.167 204.5 260.833 204.5 264.5 204.5 C 264.369 205.239 264.536 205.906 265 206.5 C 270.407 205.527 275.907 205.193 281.5 205.5 C 286.102 205.384 289.935 207.051 293 210.5 C 297.003 218.176 299.17 226.343 299.5 235 C 299.392 236.681 298.725 237.848 297.5 238.5 C 296.737 237.732 295.737 237.232 294.5 237 C 282.659 236.174 270.993 236.341 259.5 237.5 C 257.5 237.5 255.5 237.5 253.5 237.5 C 253.5 226.5 253.5 215.5 253.5 204.5 Z" stroke-linecap="round"/>
</g>
		<g transform="matrix(1 0 0 1 22.9784 -44.5593)" id="563306">
<path style="stroke: none; stroke-width: 1; stroke-dasharray: none; stroke-linecap: butt; stroke-dashoffset: 0; stroke-linejoin: miter; stroke-miterlimit: 4; is-custom-font: none; font-file-url: none; fill: rgb(171,144,116); fill-rule: evenodd; opacity: 1;" transform=" translate(-272.9784, -205.4406)" d="M 264.5 204.5 C 270.358 204.178 276.025 204.511 281.5 205.5 C 275.907 205.193 270.407 205.527 265 206.5 C 264.536 205.906 264.369 205.239 264.5 204.5 Z" stroke-linecap="round"/>
</g>
		<g transform="matrix(1 0 0 1 -136 -41.5216)" id="653617">
<path style="stroke: none; stroke-width: 1; stroke-dasharray: none; stroke-linecap: butt; stroke-dashoffset: 0; stroke-linejoin: miter; stroke-miterlimit: 4; is-custom-font: none; font-file-url: none; fill: rgb(175,177,148); fill-rule: evenodd; opacity: 1;" transform=" translate(-114, -208.4784)" d="M 110.5 205.5 C 113.672 206.589 116.672 207.922 119.5 209.5 C 118.833 210.167 118.167 210.833 117.5 211.5 C 115.886 209.925 113.886 209.259 111.5 209.5 C 111.414 208.504 111.748 207.671 112.5 207 C 111.167 206.667 109.833 206.333 108.5 206 C 109.094 205.536 109.761 205.369 110.5 205.5 Z" stroke-linecap="round"/>
</g>
		<g transform="matrix(1 0 0 1 -35 -35)" id="197305">
<path style="stroke: none; stroke-width: 1; stroke-dasharray: none; stroke-linecap: butt; stroke-dashoffset: 0; stroke-linejoin: miter; stroke-miterlimit: 4; is-custom-font: none; font-file-url: none; fill: rgb(255,240,241); fill-rule: evenodd; opacity: 1;" transform=" translate(-215, -215)" d="M 217.5 211.5 C 217.5 213.833 217.5 216.167 217.5 218.5 C 215.833 218.5 214.167 218.5 212.5 218.5 C 213.934 215.953 215.6 213.619 217.5 211.5 Z" stroke-linecap="round"/>
</g>
		<g transform="matrix(1 0 0 1 -28 -35)" id="538109">
<path style="stroke: none; stroke-width: 1; stroke-dasharray: none; stroke-linecap: butt; stroke-dashoffset: 0; stroke-linejoin: miter; stroke-miterlimit: 4; is-custom-font: none; font-file-url: none; fill: rgb(150,163,176); fill-rule: evenodd; opacity: 1;" transform=" translate(-222, -215)" d="M 220.5 211.5 C 221.5 211.5 222.5 211.5 223.5 211.5 C 223.5 213.833 223.5 216.167 223.5 218.5 C 222.5 218.5 221.5 218.5 220.5 218.5 C 220.5 216.167 220.5 213.833 220.5 211.5 Z" stroke-linecap="round"/>
</g>
		<g transform="matrix(1 0 0 1 -137.5 -35.5)" id="779698">
<path style="stroke: none; stroke-width: 1; stroke-dasharray: none; stroke-linecap: butt; stroke-dashoffset: 0; stroke-linejoin: miter; stroke-miterlimit: 4; is-custom-font: none; font-file-url: none; fill: rgb(140,144,155); fill-rule: evenodd; opacity: 1;" transform=" translate(-112.5, -214.5)" d="M 110.5 211.5 C 111.833 211.5 113.167 211.5 114.5 211.5 C 114.5 213.5 114.5 215.5 114.5 217.5 C 113.167 217.5 111.833 217.5 110.5 217.5 C 110.5 215.5 110.5 213.5 110.5 211.5 Z" stroke-linecap="round"/>
</g>
		<g transform="matrix(1 0 0 1 -84 -26)" id="76612">
<path style="stroke: none; stroke-width: 1; stroke-dasharray: none; stroke-linecap: butt; stroke-dashoffset: 0; stroke-linejoin: miter; stroke-miterlimit: 4; is-custom-font: none; font-file-url: none; fill: rgb(101,138,157); fill-rule: evenodd; opacity: 1;" transform=" translate(-166, -224)" d="M 101.5 219.5 C 103.641 218.837 105.975 218.503 108.5 218.5 C 149.146 220.21 189.813 220.876 230.5 220.5 C 230.5 223.5 230.5 226.5 230.5 229.5 C 206.507 228.793 182.507 228.46 158.5 228.5 C 140.167 228.5 121.833 228.5 103.5 228.5 C 104.055 224.988 103.388 221.988 101.5 219.5 Z" stroke-linecap="round"/>
</g>
		<g transform="matrix(1 0 0 1 -120 -25.5)" id="872598">
<path style="stroke: none; stroke-width: 1; stroke-dasharray: none; stroke-linecap: butt; stroke-dashoffset: 0; stroke-linejoin: miter; stroke-miterlimit: 4; is-custom-font: none; font-file-url: none; fill: rgb(205,162,133); fill-rule: evenodd; opacity: 1;" transform=" translate(-130, -224.5)" d="M 101.5 219.5 C 103.388 221.988 104.055 224.988 103.5 228.5 C 121.833 228.5 140.167 228.5 158.5 228.5 C 158.5 228.833 158.5 229.167 158.5 229.5 C 139.5 229.5 120.5 229.5 101.5 229.5 C 101.5 226.167 101.5 222.833 101.5 219.5 Z" stroke-linecap="round"/>
</g>
		<g transform="matrix(1 0 0 1 -54.4018 -24.5)" id="208652">
<path style="stroke: none; stroke-width: 1; stroke-dasharray: none; stroke-linecap: butt; stroke-dashoffset: 0; stroke-linejoin: miter; stroke-miterlimit: 4; is-custom-font: none; font-file-url: none; fill: rgb(202,183,188); fill-rule: evenodd; opacity: 1;" transform=" translate(-195.5982, -225.5)" d="M 230.5 220.5 C 232.402 223.337 233.069 226.671 232.5 230.5 C 207.836 229.981 183.17 229.647 158.5 229.5 C 158.5 229.167 158.5 228.833 158.5 228.5 C 182.507 228.46 206.507 228.793 230.5 229.5 C 230.5 226.5 230.5 223.5 230.5 220.5 Z" stroke-linecap="round"/>
</g>
		<g transform="matrix(1 0 0 1 -130 -17)" id="981801">
<path style="stroke: none; stroke-width: 1; stroke-dasharray: none; stroke-linecap: butt; stroke-dashoffset: 0; stroke-linejoin: miter; stroke-miterlimit: 4; is-custom-font: none; font-file-url: none; fill: rgb(249,247,244); fill-rule: evenodd; opacity: 1;" transform=" translate(-120, -233)" d="M 121.5 231.5 C 121.557 232.609 121.89 233.609 122.5 234.5 C 120.833 234.5 119.167 234.5 117.5 234.5 C 117.5 233.5 117.5 232.5 117.5 231.5 C 118.833 231.5 120.167 231.5 121.5 231.5 Z" stroke-linecap="round"/>
</g>
		<g transform="matrix(1 0 0 1 -109.5 -17.5597)" id="1994">
<path style="stroke: none; stroke-width: 1; stroke-dasharray: none; stroke-linecap: butt; stroke-dashoffset: 0; stroke-linejoin: miter; stroke-miterlimit: 4; is-custom-font: none; font-file-url: none; fill: rgb(140,75,33); fill-rule: evenodd; opacity: 1;" transform=" translate(-140.5, -232.4404)" d="M 131.5 231.5 C 137.69 231.177 143.69 231.51 149.5 232.5 C 147.05 232.298 144.717 232.631 142.5 233.5 C 138.833 232.833 135.167 232.167 131.5 231.5 Z" stroke-linecap="round"/>
</g>
		<g transform="matrix(1 0 0 1 -137.5 -17)" id="369639">
<path style="stroke: none; stroke-width: 1; stroke-dasharray: none; stroke-linecap: butt; stroke-dashoffset: 0; stroke-linejoin: miter; stroke-miterlimit: 4; is-custom-font: none; font-file-url: none; fill: rgb(156,148,156); fill-rule: evenodd; opacity: 1;" transform=" translate(-112.5, -233)" d="M 110.5 230.5 C 111.833 230.5 113.167 230.5 114.5 230.5 C 114.5 232.167 114.5 233.833 114.5 235.5 C 113.167 235.5 111.833 235.5 110.5 235.5 C 110.5 233.833 110.5 232.167 110.5 230.5 Z" stroke-linecap="round"/>
</g>
		<g transform="matrix(1 0 0 1 -102.5 -16.5588)" id="989662">
<path style="stroke: none; stroke-width: 1; stroke-dasharray: none; stroke-linecap: butt; stroke-dashoffset: 0; stroke-linejoin: miter; stroke-miterlimit: 4; is-custom-font: none; font-file-url: none; fill: rgb(238,126,12); fill-rule: evenodd; opacity: 1;" transform=" translate(-147.5, -233.4412)" d="M 149.5 232.5 C 150.791 232.263 151.791 232.596 152.5 233.5 C 152.167 233.5 151.833 233.5 151.5 233.5 C 148.396 234.775 145.396 234.775 142.5 233.5 C 144.717 232.631 147.05 232.298 149.5 232.5 Z" stroke-linecap="round"/>
</g>
		<g transform="matrix(1 0 0 1 -65.5 -16.0593)" id="709645">
<path style="stroke: none; stroke-width: 1; stroke-dasharray: none; stroke-linecap: butt; stroke-dashoffset: 0; stroke-linejoin: miter; stroke-miterlimit: 4; is-custom-font: none; font-file-url: none; fill: rgb(250,248,248); fill-rule: evenodd; opacity: 1;" transform=" translate(-184.5, -233.9407)" d="M 182.5 235.5 C 172.167 234.833 161.833 234.167 151.5 233.5 C 151.833 233.5 152.167 233.5 152.5 233.5 C 174.091 232.512 195.758 232.178 217.5 232.5 C 217.5 233.5 217.5 234.5 217.5 235.5 C 205.833 235.5 194.167 235.5 182.5 235.5 Z" stroke-linecap="round"/>
</g>
		<g transform="matrix(1 0 0 1 -20.5 -15.5)" id="347998">
<path style="stroke: none; stroke-width: 1; stroke-dasharray: none; stroke-linecap: butt; stroke-dashoffset: 0; stroke-linejoin: miter; stroke-miterlimit: 4; is-custom-font: none; font-file-url: none; fill: rgb(237,233,233); fill-rule: evenodd; opacity: 1;" transform=" translate(-229.5, -234.5)" d="M 226.5 232.5 C 228.5 232.5 230.5 232.5 232.5 232.5 C 232.5 233.833 232.5 235.167 232.5 236.5 C 230.5 236.5 228.5 236.5 226.5 236.5 C 226.5 235.167 226.5 233.833 226.5 232.5 Z" stroke-linecap="round"/>
</g>
		<g transform="matrix(1 0 0 1 -118 -16.9486)" id="505168">
<path style="stroke: none; stroke-width: 1; stroke-dasharray: none; stroke-linecap: butt; stroke-dashoffset: 0; stroke-linejoin: miter; stroke-miterlimit: 4; is-custom-font: none; font-file-url: none; fill: rgb(224,170,55); fill-rule: evenodd; opacity: 1;" transform=" translate(-132, -233.0514)" d="M 121.5 231.5 C 122.5 231.5 123.5 231.5 124.5 231.5 C 126.833 231.5 129.167 231.5 131.5 231.5 C 135.167 232.167 138.833 232.833 142.5 233.5 C 135.922 234.46 129.255 234.793 122.5 234.5 C 121.89 233.609 121.557 232.609 121.5 231.5 Z" stroke-linecap="round"/>
</g>
		<g transform="matrix(1 0 0 1 -100.5 -17.055)" id="157634">
<path style="stroke: none; stroke-width: 1; stroke-dasharray: none; stroke-linecap: butt; stroke-dashoffset: 0; stroke-linejoin: miter; stroke-miterlimit: 4; is-custom-font: none; font-file-url: none; fill: rgb(88,50,42); fill-rule: evenodd; opacity: 1;" transform=" translate(-149.5, -232.9451)" d="M 124.5 231.5 C 123.5 231.5 122.5 231.5 121.5 231.5 C 120.167 231.5 118.833 231.5 117.5 231.5 C 117.5 232.5 117.5 233.5 117.5 234.5 C 119.167 234.5 120.833 234.5 122.5 234.5 C 129.255 234.793 135.922 234.46 142.5 233.5 C 145.396 234.775 148.396 234.775 151.5 233.5 C 161.833 234.167 172.167 234.833 182.5 235.5 C 160.5 235.5 138.5 235.5 116.5 235.5 C 116.5 233.833 116.5 232.167 116.5 230.5 C 119.385 230.194 122.052 230.527 124.5 231.5 Z" stroke-linecap="round"/>
</g>
		<g transform="matrix(1 0 0 1 -27.5 -15.4715)" id="333703">
<path style="stroke: none; stroke-width: 1; stroke-dasharray: none; stroke-linecap: butt; stroke-dashoffset: 0; stroke-linejoin: miter; stroke-miterlimit: 4; is-custom-font: none; font-file-url: none; fill: rgb(172,156,162); fill-rule: evenodd; opacity: 1;" transform=" translate(-222.5, -234.5285)" d="M 220.5 232.5 C 221.5 232.5 222.5 232.5 223.5 232.5 C 223.33 233.822 223.663 234.989 224.5 236 C 223.207 236.49 221.873 236.657 220.5 236.5 C 220.5 235.167 220.5 233.833 220.5 232.5 Z" stroke-linecap="round"/>
</g>
		<g transform="matrix(1 0 0 1 28.5 -12.5077)" id="779373">
<path style="stroke: none; stroke-width: 1; stroke-dasharray: none; stroke-linecap: butt; stroke-dashoffset: 0; stroke-linejoin: miter; stroke-miterlimit: 4; is-custom-font: none; font-file-url: none; fill: rgb(255,254,254); fill-rule: evenodd; opacity: 1;" transform=" translate(-278.5, -237.4923)" d="M 259.5 237.5 C 270.993 236.341 282.659 236.174 294.5 237 C 295.737 237.232 296.737 237.732 297.5 238.5 C 284.859 237.602 272.192 237.268 259.5 237.5 Z" stroke-linecap="round"/>
</g>
		<g transform="matrix(1 0 0 1 -82.5 -8)" id="50449">
<path style="stroke: none; stroke-width: 1; stroke-dasharray: none; stroke-linecap: butt; stroke-dashoffset: 0; stroke-linejoin: miter; stroke-miterlimit: 4; is-custom-font: none; font-file-url: none; fill: rgb(103,140,159); fill-rule: evenodd; opacity: 1;" transform=" translate(-167.5, -242)" d="M 103.5 237.5 C 125.167 237.5 146.833 237.5 168.5 237.5 C 181.327 238.331 194.327 238.831 207.5 239 C 208.416 239.374 209.25 239.874 210 240.5 C 212.837 238.415 215.837 238.081 219 239.5 C 221.607 238.877 224.107 238.21 226.5 237.5 C 228.167 237.5 229.833 237.5 231.5 237.5 C 231.5 240.5 231.5 243.5 231.5 246.5 C 228.833 246.5 226.167 246.5 223.5 246.5 C 210.677 245.505 197.677 245.171 184.5 245.5 C 177.167 245.5 169.833 245.5 162.5 245.5 C 143.007 244.503 123.34 244.17 103.5 244.5 C 103.5 242.167 103.5 239.833 103.5 237.5 Z" stroke-linecap="round"/>
</g>
		<g transform="matrix(1 0 0 1 -52.5 -11)" id="422186">
<path style="stroke: none; stroke-width: 1; stroke-dasharray: none; stroke-linecap: butt; stroke-dashoffset: 0; stroke-linejoin: miter; stroke-miterlimit: 4; is-custom-font: none; font-file-url: none; fill: rgb(74,101,115); fill-rule: evenodd; opacity: 1;" transform=" translate(-197.5, -239)" d="M 168.5 237.5 C 187.833 237.5 207.167 237.5 226.5 237.5 C 224.107 238.21 221.607 238.877 219 239.5 C 215.837 238.081 212.837 238.415 210 240.5 C 209.25 239.874 208.416 239.374 207.5 239 C 194.327 238.831 181.327 238.331 168.5 237.5 Z" stroke-linecap="round"/>
</g>
		<g transform="matrix(1 0 0 1 -38.9426 -7)" id="765974">
<path style="stroke: none; stroke-width: 1; stroke-dasharray: none; stroke-linecap: butt; stroke-dashoffset: 0; stroke-linejoin: miter; stroke-miterlimit: 4; is-custom-font: none; font-file-url: none; fill: rgb(248,244,244); fill-rule: evenodd; opacity: 1;" transform=" translate(-211.0574, -243)" d="M 231.5 237.5 C 232.482 240.962 232.815 244.629 232.5 248.5 C 218.186 247.63 203.853 247.297 189.5 247.5 C 200.654 246.505 211.988 246.172 223.5 246.5 C 226.167 246.5 228.833 246.5 231.5 246.5 C 231.5 243.5 231.5 240.5 231.5 237.5 Z" stroke-linecap="round"/>
</g>
		<g transform="matrix(1 0 0 1 4.5 -26.9451)" id="96845">
<path style="stroke: none; stroke-width: 1; stroke-dasharray: none; stroke-linecap: butt; stroke-dashoffset: 0; stroke-linejoin: miter; stroke-miterlimit: 4; is-custom-font: none; font-file-url: none; fill: rgb(92,58,57); fill-rule: evenodd; opacity: 1;" transform=" translate(-254.5, -223.0549)" d="M 251.5 205.5 C 252.495 216.321 252.828 227.321 252.5 238.5 C 253.5 238.5 254.5 238.5 255.5 238.5 C 256.5 239.167 257.5 239.833 258.5 240.5 C 255.615 240.806 252.948 240.473 250.5 239.5 C 251.495 228.346 251.828 217.012 251.5 205.5 Z" stroke-linecap="round"/>
</g>
		<g transform="matrix(1 0 0 1 -118.0568 -8.9409)" id="19015">
<path style="stroke: none; stroke-width: 1; stroke-dasharray: none; stroke-linecap: butt; stroke-dashoffset: 0; stroke-linejoin: miter; stroke-miterlimit: 4; is-custom-font: none; font-file-url: none; fill: rgb(155,147,158); fill-rule: evenodd; opacity: 1;" transform=" translate(-131.9431, -241.0591)" d="M 103.5 237.5 C 103.5 239.833 103.5 242.167 103.5 244.5 C 123.34 244.17 143.007 244.503 162.5 245.5 C 142.091 245.821 121.758 245.488 101.5 244.5 C 101.187 241.753 101.52 239.086 102.5 236.5 C 103.107 236.624 103.44 236.957 103.5 237.5 Z" stroke-linecap="round"/>
</g>
		<g transform="matrix(1 0 0 1 -107 -4.3816)" id="502822">
<path style="stroke: none; stroke-width: 1; stroke-dasharray: none; stroke-linecap: butt; stroke-dashoffset: 0; stroke-linejoin: miter; stroke-miterlimit: 4; is-custom-font: none; font-file-url: none; fill: rgb(254,254,254); fill-rule: evenodd; opacity: 1;" transform=" translate(-143, -245.6184)" d="M 101.5 244.5 C 121.758 245.488 142.091 245.821 162.5 245.5 C 169.833 245.5 177.167 245.5 184.5 245.5 C 167.675 246.497 150.675 246.83 133.5 246.5 C 122.448 247.143 111.781 246.476 101.5 244.5 Z" stroke-linecap="round"/>
</g>
		<g transform="matrix(1 0 0 1 -71.5 -3.4997)" id="211703">
<path style="stroke: none; stroke-width: 1; stroke-dasharray: none; stroke-linecap: butt; stroke-dashoffset: 0; stroke-linejoin: miter; stroke-miterlimit: 4; is-custom-font: none; font-file-url: none; fill: rgb(171,142,144); fill-rule: evenodd; opacity: 1;" transform=" translate(-178.5, -246.5003)" d="M 184.5 245.5 C 197.677 245.171 210.677 245.505 223.5 246.5 C 211.988 246.172 200.654 246.505 189.5 247.5 C 170.659 247.83 151.993 247.497 133.5 246.5 C 150.675 246.83 167.675 246.497 184.5 245.5 Z" stroke-linecap="round"/>
</g>
		<g transform="matrix(1 0 0 1 125 -4)" id="260627">
<path style="stroke: none; stroke-width: 1; stroke-dasharray: none; stroke-linecap: butt; stroke-dashoffset: 0; stroke-linejoin: miter; stroke-miterlimit: 4; is-custom-font: none; font-file-url: none; fill: rgb(243,189,186); fill-rule: evenodd; opacity: 1;" transform=" translate(-375, -246)" d="M 367.5 244.5 C 374.346 244.818 381.013 245.485 387.5 246.5 C 386.833 246.5 386.5 246.833 386.5 247.5 C 378.33 247.101 370.33 246.435 362.5 245.5 C 364.415 245.784 366.081 245.451 367.5 244.5 Z" stroke-linecap="round"/>
</g>
		<g transform="matrix(1 0 0 1 146.5001 8.8855)" id="552188">
<path style="stroke: none; stroke-width: 1; stroke-dasharray: none; stroke-linecap: butt; stroke-dashoffset: 0; stroke-linejoin: miter; stroke-miterlimit: 4; is-custom-font: none; font-file-url: none; fill: rgb(248,241,241); fill-rule: evenodd; opacity: 1;" transform=" translate(-396.5001, -258.8855)" d="M 386.5 247.5 C 386.5 246.833 386.833 246.5 387.5 246.5 C 397.829 245.187 403.996 249.52 406 259.5 C 406.667 263.5 406.667 267.5 406 271.5 C 404.629 269.959 403.129 268.625 401.5 267.5 C 403.22 255.575 398.22 248.909 386.5 247.5 Z" stroke-linecap="round"/>
</g>
		<g transform="matrix(1 0 0 1 -137 1.049)" id="56136">
<path style="stroke: none; stroke-width: 1; stroke-dasharray: none; stroke-linecap: butt; stroke-dashoffset: 0; stroke-linejoin: miter; stroke-miterlimit: 4; is-custom-font: none; font-file-url: none; fill: rgb(120,123,134); fill-rule: evenodd; opacity: 1;" transform=" translate(-113, -251.049)" d="M 112.5 248.5 C 113.5 248.5 114.5 248.5 115.5 248.5 C 115.5 250.167 115.5 251.833 115.5 253.5 C 113.585 253.784 111.919 253.451 110.5 252.5 C 111.919 253.451 113.585 253.784 115.5 253.5 C 115.5 251.833 115.5 250.167 115.5 248.5 C 114.5 248.5 113.5 248.5 112.5 248.5 Z" stroke-linecap="round"/>
</g>
		<g transform="matrix(1 0 0 1 -82.5493 2)" id="72151">
<path style="stroke: none; stroke-width: 1; stroke-dasharray: none; stroke-linecap: butt; stroke-dashoffset: 0; stroke-linejoin: miter; stroke-miterlimit: 4; is-custom-font: none; font-file-url: none; fill: rgb(249,246,246); fill-rule: evenodd; opacity: 1;" transform=" translate(-167.4507, -252)" d="M 151.5 249.5 C 172.994 250.497 194.66 250.831 216.5 250.5 C 216.232 252.099 216.566 253.432 217.5 254.5 C 215.19 255.164 212.69 255.497 210 255.5 C 179.175 254.487 148.342 253.82 117.5 253.5 C 117.215 251.712 117.548 250.045 118.5 248.5 C 129.448 249.478 140.448 249.811 151.5 249.5 Z" stroke-linecap="round"/>
</g>
		<g transform="matrix(1 0 0 1 -65.5 2)" id="326257">
<path style="stroke: none; stroke-width: 1; stroke-dasharray: none; stroke-linecap: butt; stroke-dashoffset: 0; stroke-linejoin: miter; stroke-miterlimit: 4; is-custom-font: none; font-file-url: none; fill: rgb(151,114,113); fill-rule: evenodd; opacity: 1;" transform=" translate(-184.5, -252)" d="M 151.5 249.5 C 173.5 249.5 195.5 249.5 217.5 249.5 C 217.5 251.167 217.5 252.833 217.5 254.5 C 216.566 253.432 216.232 252.099 216.5 250.5 C 194.66 250.831 172.994 250.497 151.5 249.5 Z" stroke-linecap="round"/>
</g>
		<g transform="matrix(1 0 0 1 -20.5 3)" id="413583">
<path style="stroke: none; stroke-width: 1; stroke-dasharray: none; stroke-linecap: butt; stroke-dashoffset: 0; stroke-linejoin: miter; stroke-miterlimit: 4; is-custom-font: none; font-file-url: none; fill: rgb(238,230,230); fill-rule: evenodd; opacity: 1;" transform=" translate(-229.5, -253)" d="M 226.5 249.5 C 228.5 249.5 230.5 249.5 232.5 249.5 C 232.5 251.833 232.5 254.167 232.5 256.5 C 230.5 256.5 228.5 256.5 226.5 256.5 C 226.5 254.167 226.5 251.833 226.5 249.5 Z" stroke-linecap="round"/>
</g>
		<g transform="matrix(1 0 0 1 42.0883 1.8996)" id="164568">
<path style="stroke: none; stroke-width: 1; stroke-dasharray: none; stroke-linecap: butt; stroke-dashoffset: 0; stroke-linejoin: miter; stroke-miterlimit: 4; is-custom-font: none; font-file-url: none; fill: rgb(40,18,16); fill-rule: evenodd; opacity: 1;" transform=" translate(-292.0883, -251.8995)" d="M 287.5 250.5 C 291.048 250.095 294.381 250.595 297.5 252 C 294.298 253.483 290.964 253.817 287.5 253 C 286.402 252.23 286.402 251.397 287.5 250.5 Z" stroke-linecap="round"/>
</g>
		<g transform="matrix(1 0 0 1 -137.5437 0.5285)" id="696274">
<path style="stroke: none; stroke-width: 1; stroke-dasharray: none; stroke-linecap: butt; stroke-dashoffset: 0; stroke-linejoin: miter; stroke-miterlimit: 4; is-custom-font: none; font-file-url: none; fill: rgb(234,227,229); fill-rule: evenodd; opacity: 1;" transform=" translate(-112.4563, -250.5285)" d="M 112.5 248.5 C 112.36 250.124 113.027 251.29 114.5 252 C 113.207 252.49 111.873 252.657 110.5 252.5 C 110.157 250.517 110.824 249.183 112.5 248.5 Z" stroke-linecap="round"/>
</g>
		<g transform="matrix(1 0 0 1 -146.5 1.5)" id="309119">
<path style="stroke: none; stroke-width: 1; stroke-dasharray: none; stroke-linecap: butt; stroke-dashoffset: 0; stroke-linejoin: miter; stroke-miterlimit: 4; is-custom-font: none; font-file-url: none; fill: rgb(161,119,118); fill-rule: evenodd; opacity: 1;" transform=" translate(-103.5, -251.5)" d="M 100.5 247.5 C 103.167 247.5 105.833 247.5 108.5 247.5 C 108.5 249.5 108.5 251.5 108.5 253.5 C 105.15 253.335 101.817 253.502 98.5 254 C 103.019 254.175 107.353 254.675 111.5 255.5 C 106.5 255.5 101.5 255.5 96.5 255.5 C 96.6716 254.508 96.3382 253.842 95.5 253.5 C 99.2984 252.517 103.298 252.183 107.5 252.5 C 107.5 251.167 107.5 249.833 107.5 248.5 C 104.941 248.802 102.607 248.468 100.5 247.5 Z" stroke-linecap="round"/>
</g>
		<g transform="matrix(1 0 0 1 -28 3)" id="951649">
<path style="stroke: none; stroke-width: 1; stroke-dasharray: none; stroke-linecap: butt; stroke-dashoffset: 0; stroke-linejoin: miter; stroke-miterlimit: 4; is-custom-font: none; font-file-url: none; fill: rgb(162,151,157); fill-rule: evenodd; opacity: 1;" transform=" translate(-222, -253)" d="M 219.5 249.5 C 221.167 249.5 222.833 249.5 224.5 249.5 C 224.5 251.833 224.5 254.167 224.5 256.5 C 222.833 256.5 221.167 256.5 219.5 256.5 C 219.5 254.167 219.5 251.833 219.5 249.5 Z" stroke-linecap="round"/>
</g>
		<g transform="matrix(1 0 0 1 -112 6.5318)" id="939277">
<path style="stroke: none; stroke-width: 1; stroke-dasharray: none; stroke-linecap: butt; stroke-dashoffset: 0; stroke-linejoin: miter; stroke-miterlimit: 4; is-custom-font: none; font-file-url: none; fill: rgb(238,188,186); fill-rule: evenodd; opacity: 1;" transform=" translate(-138, -256.5318)" d="M 114.5 255.5 C 130.343 255.719 146.009 256.386 161.5 257.5 C 145.637 257.784 129.97 257.117 114.5 255.5 Z" stroke-linecap="round"/>
</g>
		<g transform="matrix(1 0 0 1 73.0311 7.6976)" id="937821">
<path style="stroke: none; stroke-width: 1; stroke-dasharray: none; stroke-linecap: butt; stroke-dashoffset: 0; stroke-linejoin: miter; stroke-miterlimit: 4; is-custom-font: none; font-file-url: none; fill: rgb(34,23,22); fill-rule: evenodd; opacity: 1;" transform=" translate(-323.0311, -257.6976)" d="M 343.5 311.5 C 337.087 309.754 330.42 308.754 323.5 308.5 C 323.5 308.167 323.5 307.833 323.5 307.5 C 352.167 307.5 380.833 307.5 409.5 307.5 C 409.5 306.5 409.5 305.5 409.5 304.5 C 410.093 295.337 409.26 286.337 407 277.5 C 404.305 271.73 399.805 268.23 393.5 267 C 376.927 263.538 360.26 262.871 343.5 265 C 336.499 266.583 330.666 270.083 326 275.5 C 325.517 276.448 325.351 277.448 325.5 278.5 C 324.778 278.918 324.278 279.584 324 280.5 C 323.58 284.191 323.08 287.858 322.5 291.5 C 322.5 292.833 322.5 294.167 322.5 295.5 C 321.521 292.375 321.187 289.042 321.5 285.5 C 321.956 276.569 325.956 269.902 333.5 265.5 C 336.949 264.03 340.616 262.864 344.5 262 C 358.864 260.192 373.197 260.525 387.5 263 C 392.423 263.808 397.089 265.308 401.5 267.5 C 403.129 268.625 404.629 269.959 406 271.5 C 406.667 267.5 406.667 263.5 406 259.5 C 403.996 249.52 397.829 245.187 387.5 246.5 C 381.013 245.485 374.346 244.818 367.5 244.5 C 359.493 244.666 351.493 244.5 343.5 244 C 334.383 241.618 325.049 239.618 315.5 238 C 312.737 234.639 310.903 230.805 310 226.5 C 308.226 218.918 307.06 211.251 306.5 203.5 C 306.611 202.883 306.944 202.383 307.5 202 C 310.146 201.503 312.813 201.336 315.5 201.5 C 318.113 202.435 320.779 202.602 323.5 202 C 322.167 201 320.833 200 319.5 199 C 312.049 196.369 304.382 194.702 296.5 194 C 278.351 192.437 260.184 191.27 242 190.5 C 240.301 190.387 239.134 191.053 238.5 192.5 C 237.5 195.167 236.5 197.833 235.5 200.5 C 235.672 199.508 235.338 198.842 234.5 198.5 C 234.589 195.061 235.922 192.228 238.5 190 C 262.621 188.61 286.621 189.61 310.5 193 C 320.305 194.804 327.138 200.304 331 209.5 C 334.458 220.246 336.624 231.246 337.5 242.5 C 354.17 242.333 370.837 242.5 387.5 243 C 392.683 243.702 397.683 245.036 402.5 247 C 405.667 250.155 407.501 253.988 408 258.5 C 408.333 264.5 408.667 270.5 409 276.5 C 409.667 278.5 410.333 280.5 411 282.5 C 411.5 291.16 411.666 299.827 411.5 308.5 C 404.49 308.668 397.49 309.001 390.5 309.5 C 389.146 318.023 384.146 323.19 375.5 325 C 364.241 327.613 354.408 325.113 346 317.5 C 344.441 315.783 343.608 313.783 343.5 311.5 Z" stroke-linecap="round"/>
</g>
		<g transform="matrix(1 0 0 1 76.5 -12.9963)" id="905880">
<path style="stroke: none; stroke-width: 1; stroke-dasharray: none; stroke-linecap: butt; stroke-dashoffset: 0; stroke-linejoin: miter; stroke-miterlimit: 4; is-custom-font: none; font-file-url: none; fill: rgb(246,234,231); fill-rule: evenodd; opacity: 1;" transform=" translate(-326.5, -237.0037)" d="M 317.5 235.5 C 323.549 236.073 329.549 236.74 335.5 237.5 C 331.019 238.648 326.352 238.815 321.5 238 C 319.934 237.392 318.6 236.558 317.5 235.5 Z" stroke-linecap="round"/>
</g>
		<g transform="matrix(1 0 0 1 72.5 -28.5311)" id="861976">
<path style="stroke: none; stroke-width: 1; stroke-dasharray: none; stroke-linecap: butt; stroke-dashoffset: 0; stroke-linejoin: miter; stroke-miterlimit: 4; is-custom-font: none; font-file-url: none; fill: rgb(249,221,178); fill-rule: evenodd; opacity: 1;" transform=" translate(-322.5, -221.469)" d="M 309.5 205.5 C 314.511 205.334 319.511 205.501 324.5 206 C 325.044 206.717 325.711 207.217 326.5 207.5 C 328.163 209.493 329.33 211.826 330 214.5 C 331.996 222.148 333.829 229.815 335.5 237.5 C 329.549 236.74 323.549 236.073 317.5 235.5 C 315.864 234.251 314.697 232.584 314 230.5 C 311.919 222.261 310.419 213.928 309.5 205.5 Z" stroke-linecap="round"/>
</g>
		<g transform="matrix(1 0 0 1 68 -44.5)" id="313204">
<path style="stroke: none; stroke-width: 1; stroke-dasharray: none; stroke-linecap: butt; stroke-dashoffset: 0; stroke-linejoin: miter; stroke-miterlimit: 4; is-custom-font: none; font-file-url: none; fill: rgb(229,208,206); fill-rule: evenodd; opacity: 1;" transform=" translate(-318, -205.5)" d="M 326.5 207.5 C 325.711 207.217 325.044 206.717 324.5 206 C 319.511 205.501 314.511 205.334 309.5 205.5 C 311.571 204.191 314.071 203.525 317 203.5 C 319.5 203.667 322 203.833 324.5 204 C 325.823 204.816 326.489 205.983 326.5 207.5 Z" stroke-linecap="round"/>
</g>
		<g transform="matrix(1 0 0 1 116.5925 34.142)" id="915641">
<path style="stroke: none; stroke-width: 1; stroke-dasharray: none; stroke-linecap: butt; stroke-dashoffset: 0; stroke-linejoin: miter; stroke-miterlimit: 4; is-custom-font: none; font-file-url: none; fill: rgb(250,90,84); fill-rule: evenodd; opacity: 1;" transform=" translate(-366.5925, -284.1421)" d="M 409.5 304.5 C 380.833 304.5 352.167 304.5 323.5 304.5 C 323.5 300.5 323.5 296.5 323.5 292.5 C 324.341 287.99 325.008 283.324 325.5 278.5 C 325.351 277.448 325.517 276.448 326 275.5 C 330.666 270.083 336.499 266.583 343.5 265 C 360.26 262.871 376.927 263.538 393.5 267 C 399.805 268.23 404.305 271.73 407 277.5 C 409.26 286.337 410.093 295.337 409.5 304.5 Z" stroke-linecap="round"/>
</g>
		<g transform="matrix(1 0 0 1 -48.5418 39.9033)" id="893566">
<path style="stroke: none; stroke-width: 1; stroke-dasharray: none; stroke-linecap: butt; stroke-dashoffset: 0; stroke-linejoin: miter; stroke-miterlimit: 4; is-custom-font: none; font-file-url: none; fill: rgb(29,18,17); fill-rule: evenodd; opacity: 1;" transform=" translate(-201.4582, -289.9033)" d="M 95.5 253.5 C 96.3382 253.842 96.6716 254.508 96.5 255.5 C 98.1532 270.103 98.8199 284.77 98.5 299.5 C 111.851 299.334 125.185 299.667 138.5 300.5 C 141.287 301.477 144.287 301.81 147.5 301.5 C 147.795 299.265 147.461 297.265 146.5 295.5 C 146.98 290.178 147.313 284.845 147.5 279.5 C 148.847 273.983 152.18 270.15 157.5 268 C 171.119 266.427 184.786 266.094 198.5 267 C 209.65 267.448 215.317 273.281 215.5 284.5 C 215.177 290.69 215.51 296.69 216.5 302.5 C 224.019 302.825 231.352 302.492 238.5 301.5 C 240.201 300.789 241.201 299.455 241.5 297.5 C 264.82 296.066 288.153 296.233 311.5 298 C 312.38 299.356 312.714 300.856 312.5 302.5 C 313.5 302.5 314.5 302.5 315.5 302.5 C 309.833 303.167 304.167 303.833 298.5 304.5 C 270.808 304.799 243.141 304.466 215.5 303.5 C 215.5 304.833 215.5 306.167 215.5 307.5 C 212.833 307.5 210.167 307.5 207.5 307.5 C 205.349 317.15 199.349 322.983 189.5 325 C 176.269 328.598 166.102 324.765 159 313.5 C 158.187 311.564 157.687 309.564 157.5 307.5 C 155.833 307.5 154.167 307.5 152.5 307.5 C 154.833 306.833 157.167 306.167 159.5 305.5 C 177.833 305.5 196.167 305.5 214.5 305.5 C 214.5 304.5 214.5 303.5 214.5 302.5 C 214.666 296.824 214.499 291.157 214 285.5 C 214.012 275.638 209.179 270.471 199.5 270 C 187.527 268.628 175.527 268.294 163.5 269 C 161.942 269.21 160.609 269.71 159.5 270.5 C 152.801 272.707 149.301 277.373 149 284.5 C 148.5 291.492 148.334 298.492 148.5 305.5 C 148.5 306.167 148.167 306.5 147.5 306.5 C 147.5 305.167 147.5 303.833 147.5 302.5 C 132.464 302.785 117.464 302.451 102.5 301.5 C 103.384 305.49 102.051 308.323 98.5 310 C 95.1667 310.667 91.8333 310.667 88.5 310 C 87.5769 307.959 87.2436 305.792 87.5 303.5 C 91.5138 303.666 95.5138 303.499 99.5 303 C 99.8333 302.667 100.167 302.333 100.5 302 C 99.552 301.517 98.552 301.351 97.5 301.5 C 95.8671 285.55 95.2004 269.55 95.5 253.5 Z" stroke-linecap="round"/>
</g>
		<g transform="matrix(1 0 0 1 -65.5001 35.5703)" id="100732">
<path style="stroke: none; stroke-width: 1; stroke-dasharray: none; stroke-linecap: butt; stroke-dashoffset: 0; stroke-linejoin: miter; stroke-miterlimit: 4; is-custom-font: none; font-file-url: none; fill: rgb(247,90,84); fill-rule: evenodd; opacity: 1;" transform=" translate(-184.4999, -285.5702)" d="M 214.5 302.5 C 194.5 302.5 174.5 302.5 154.5 302.5 C 154.334 295.159 154.5 287.826 155 280.5 C 155.703 276.764 157.203 273.431 159.5 270.5 C 160.609 269.71 161.942 269.21 163.5 269 C 175.527 268.294 187.527 268.628 199.5 270 C 209.179 270.471 214.012 275.638 214 285.5 C 214.499 291.157 214.666 296.824 214.5 302.5 Z" stroke-linecap="round"/>
</g>
		<g transform="matrix(1 0 0 1 75.453 34)" id="195583">
<path style="stroke: none; stroke-width: 1; stroke-dasharray: none; stroke-linecap: butt; stroke-dashoffset: 0; stroke-linejoin: miter; stroke-miterlimit: 4; is-custom-font: none; font-file-url: none; fill: rgb(250,241,240); fill-rule: evenodd; opacity: 1;" transform=" translate(-325.4529, -284)" d="M 333.5 265.5 C 325.956 269.902 321.956 276.569 321.5 285.5 C 320.511 290.975 320.178 296.642 320.5 302.5 C 319.5 302.5 318.5 302.5 317.5 302.5 C 317.179 294.439 317.679 286.439 319 278.5 C 321.484 271.514 326.318 267.181 333.5 265.5 Z" stroke-linecap="round"/>
</g>
		<g transform="matrix(1 0 0 1 -68.5311 38)" id="33096">
<path style="stroke: none; stroke-width: 1; stroke-dasharray: none; stroke-linecap: butt; stroke-dashoffset: 0; stroke-linejoin: miter; stroke-miterlimit: 4; is-custom-font: none; font-file-url: none; fill: rgb(248,241,241); fill-rule: evenodd; opacity: 1;" transform=" translate(-181.4689, -288)" d="M 159.5 270.5 C 157.203 273.431 155.703 276.764 155 280.5 C 154.5 287.826 154.334 295.159 154.5 302.5 C 174.5 302.5 194.5 302.5 214.5 302.5 C 214.5 303.5 214.5 304.5 214.5 305.5 C 196.167 305.5 177.833 305.5 159.5 305.5 C 155.833 305.5 152.167 305.5 148.5 305.5 C 148.334 298.492 148.5 291.492 149 284.5 C 149.301 277.373 152.801 272.707 159.5 270.5 Z" stroke-linecap="round"/>
</g>
		<g transform="matrix(1 0 0 1 -33.5597 43.5)" id="491060">
<path style="stroke: none; stroke-width: 1; stroke-dasharray: none; stroke-linecap: butt; stroke-dashoffset: 0; stroke-linejoin: miter; stroke-miterlimit: 4; is-custom-font: none; font-file-url: none; fill: rgb(144,52,49); fill-rule: evenodd; opacity: 1;" transform=" translate(-216.4404, -293.5)" d="M 215.5 284.5 C 216.289 284.783 216.956 285.283 217.5 286 C 216.527 291.407 216.193 296.907 216.5 302.5 C 215.51 296.69 215.177 290.69 215.5 284.5 Z" stroke-linecap="round"/>
</g>
		<g transform="matrix(1 0 0 1 74 35.5)" id="756302">
<path style="stroke: none; stroke-width: 1; stroke-dasharray: none; stroke-linecap: butt; stroke-dashoffset: 0; stroke-linejoin: miter; stroke-miterlimit: 4; is-custom-font: none; font-file-url: none; fill: rgb(232,158,154); fill-rule: evenodd; opacity: 1;" transform=" translate(-324, -285.5)" d="M 325.5 278.5 C 325.008 283.324 324.341 287.99 323.5 292.5 C 323.5 291.833 323.167 291.5 322.5 291.5 C 323.08 287.858 323.58 284.191 324 280.5 C 324.278 279.584 324.778 278.918 325.5 278.5 Z" stroke-linecap="round"/>
</g>
		<g transform="matrix(1 0 0 1 -103.524 40)" id="922108">
<path style="stroke: none; stroke-width: 1; stroke-dasharray: none; stroke-linecap: butt; stroke-dashoffset: 0; stroke-linejoin: miter; stroke-miterlimit: 4; is-custom-font: none; font-file-url: none; fill: rgb(226,151,148); fill-rule: evenodd; opacity: 1;" transform=" translate(-146.476, -290)" d="M 147.5 279.5 C 147.313 284.845 146.98 290.178 146.5 295.5 C 146.784 297.415 146.451 299.081 145.5 300.5 C 145.259 293.27 145.925 286.27 147.5 279.5 Z" stroke-linecap="round"/>
</g>
		<g transform="matrix(1 0 0 1 115.9421 49.5)" id="747274">
<path style="stroke: none; stroke-width: 1; stroke-dasharray: none; stroke-linecap: butt; stroke-dashoffset: 0; stroke-linejoin: miter; stroke-miterlimit: 4; is-custom-font: none; font-file-url: none; fill: rgb(241,212,210); fill-rule: evenodd; opacity: 1;" transform=" translate(-365.9421, -299.5)" d="M 322.5 291.5 C 323.167 291.5 323.5 291.833 323.5 292.5 C 323.5 296.5 323.5 300.5 323.5 304.5 C 352.167 304.5 380.833 304.5 409.5 304.5 C 409.5 305.5 409.5 306.5 409.5 307.5 C 380.833 307.5 352.167 307.5 323.5 307.5 C 322.517 303.702 322.183 299.702 322.5 295.5 C 322.5 294.167 322.5 292.833 322.5 291.5 Z" stroke-linecap="round"/>
</g>
		<g transform="matrix(1 0 0 1 61 47)" id="743051">
<path style="stroke: none; stroke-width: 1; stroke-dasharray: none; stroke-linecap: butt; stroke-dashoffset: 0; stroke-linejoin: miter; stroke-miterlimit: 4; is-custom-font: none; font-file-url: none; fill: rgb(78,46,45); fill-rule: evenodd; opacity: 1;" transform=" translate(-311, -297)" d="M 321.5 285.5 C 321.187 289.042 321.521 292.375 322.5 295.5 C 322.183 299.702 322.517 303.702 323.5 307.5 C 323.5 307.833 323.5 308.167 323.5 308.5 C 321.824 307.817 321.157 306.483 321.5 304.5 C 313.833 304.5 306.167 304.5 298.5 304.5 C 304.167 303.833 309.833 303.167 315.5 302.5 C 316.167 302.5 316.833 302.5 317.5 302.5 C 318.5 302.5 319.5 302.5 320.5 302.5 C 320.178 296.642 320.511 290.975 321.5 285.5 Z" stroke-linecap="round"/>
</g>
		<g transform="matrix(1 0 0 1 -10.0451 49.5)" id="661058">
<path style="stroke: none; stroke-width: 1; stroke-dasharray: none; stroke-linecap: butt; stroke-dashoffset: 0; stroke-linejoin: miter; stroke-miterlimit: 4; is-custom-font: none; font-file-url: none; fill: rgb(255,244,244); fill-rule: evenodd; opacity: 1;" transform=" translate(-239.9549, -299.5)" d="M 241.5 297.5 C 241.201 299.455 240.201 300.789 238.5 301.5 C 238.088 299.027 239.088 297.694 241.5 297.5 Z" stroke-linecap="round"/>
</g>
		<g transform="matrix(1 0 0 1 49.5448 50.4398)" id="981283">
<path style="stroke: none; stroke-width: 1; stroke-dasharray: none; stroke-linecap: butt; stroke-dashoffset: 0; stroke-linejoin: miter; stroke-miterlimit: 4; is-custom-font: none; font-file-url: none; fill: rgb(128,84,70); fill-rule: evenodd; opacity: 1;" transform=" translate(-299.5448, -300.4398)" d="M 288.5 299.5 C 295.648 298.508 302.981 298.175 310.5 298.5 C 310.768 300.099 310.434 301.432 309.5 302.5 C 309.5 301.5 309.5 300.5 309.5 299.5 C 302.5 299.5 295.5 299.5 288.5 299.5 Z" stroke-linecap="round"/>
</g>
		<g transform="matrix(1 0 0 1 26.5 50.5)" id="716371">
<path style="stroke: none; stroke-width: 1; stroke-dasharray: none; stroke-linecap: butt; stroke-dashoffset: 0; stroke-linejoin: miter; stroke-miterlimit: 4; is-custom-font: none; font-file-url: none; fill: rgb(234,198,164); fill-rule: evenodd; opacity: 1;" transform=" translate(-276.5, -300.5)" d="M 288.5 299.5 C 295.5 299.5 302.5 299.5 309.5 299.5 C 309.5 300.5 309.5 301.5 309.5 302.5 C 287.513 301.634 265.513 301.3 243.5 301.5 C 243.5 300.5 243.5 299.5 243.5 298.5 C 258.509 298.5 273.509 298.834 288.5 299.5 Z" stroke-linecap="round"/>
</g>
		<g transform="matrix(1 0 0 1 -106.9481 48.556)" id="628743">
<path style="stroke: none; stroke-width: 1; stroke-dasharray: none; stroke-linecap: butt; stroke-dashoffset: 0; stroke-linejoin: miter; stroke-miterlimit: 4; is-custom-font: none; font-file-url: none; fill: rgb(113,53,50); fill-rule: evenodd; opacity: 1;" transform=" translate(-143.0519, -298.556)" d="M 146.5 295.5 C 147.461 297.265 147.795 299.265 147.5 301.5 C 144.287 301.81 141.287 301.477 138.5 300.5 C 140.833 300.5 143.167 300.5 145.5 300.5 C 146.451 299.081 146.784 297.415 146.5 295.5 Z" stroke-linecap="round"/>
</g>
		<g transform="matrix(1 0 0 1 -96.5 56.549)" id="656286">
<path style="stroke: none; stroke-width: 1; stroke-dasharray: none; stroke-linecap: butt; stroke-dashoffset: 0; stroke-linejoin: miter; stroke-miterlimit: 4; is-custom-font: none; font-file-url: none; fill: rgb(75,43,42); fill-rule: evenodd; opacity: 1;" transform=" translate(-153.5, -306.549)" d="M 148.5 305.5 C 152.167 305.5 155.833 305.5 159.5 305.5 C 157.167 306.167 154.833 306.833 152.5 307.5 C 150.585 307.784 148.919 307.451 147.5 306.5 C 148.167 306.5 148.5 306.167 148.5 305.5 Z" stroke-linecap="round"/>
</g>
		<g transform="matrix(1 0 0 1 -155 56.4812)" id="350480">
<path style="stroke: none; stroke-width: 1; stroke-dasharray: none; stroke-linecap: butt; stroke-dashoffset: 0; stroke-linejoin: miter; stroke-miterlimit: 4; is-custom-font: none; font-file-url: none; fill: rgb(127,135,148); fill-rule: evenodd; opacity: 1;" transform=" translate(-95, -306.4812)" d="M 89.5 306.5 C 93.0187 305.192 96.6853 305.192 100.5 306.5 C 96.7897 307.758 93.123 307.758 89.5 306.5 Z" stroke-linecap="round"/>
</g>
		<g transform="matrix(1 0 0 1 -66 65.0001)" id="205160">
<path style="stroke: none; stroke-width: 1; stroke-dasharray: none; stroke-linecap: butt; stroke-dashoffset: 0; stroke-linejoin: miter; stroke-miterlimit: 4; is-custom-font: none; font-file-url: none; fill: rgb(234,226,227); fill-rule: evenodd; opacity: 1;" transform=" translate(-184, -315.0001)" d="M 202.5 307.5 C 203.5 307.5 204.5 307.5 205.5 307.5 C 203.445 316.378 197.778 321.212 188.5 322 C 182.833 322.667 177.167 322.667 171.5 322 C 168.039 320.357 165.039 318.19 162.5 315.5 C 173.459 321.595 184.793 322.095 196.5 317 C 200.029 314.669 202.029 311.503 202.5 307.5 Z" stroke-linecap="round"/>
</g>
		<g transform="matrix(1 0 0 1 -69.0038 63.9899)" id="696942">
<path style="stroke: none; stroke-width: 1; stroke-dasharray: none; stroke-linecap: butt; stroke-dashoffset: 0; stroke-linejoin: miter; stroke-miterlimit: 4; is-custom-font: none; font-file-url: none; fill: rgb(100,134,153); fill-rule: evenodd; opacity: 1;" transform=" translate(-180.9962, -313.9899)" d="M 202.5 307.5 C 202.029 311.503 200.029 314.669 196.5 317 C 184.793 322.095 173.459 321.595 162.5 315.5 C 160.394 313.281 159.394 310.615 159.5 307.5 C 173.833 307.5 188.167 307.5 202.5 307.5 Z" stroke-linecap="round"/>
</g>
		<g transform="matrix(1 0 0 1 116.5 65.8943)" id="448529">
<path style="stroke: none; stroke-width: 1; stroke-dasharray: none; stroke-linecap: butt; stroke-dashoffset: 0; stroke-linejoin: miter; stroke-miterlimit: 4; is-custom-font: none; font-file-url: none; fill: rgb(106,139,158); fill-rule: evenodd; opacity: 1;" transform=" translate(-366.5, -315.8943)" d="M 376.5 321.5 C 364.204 324.015 354.204 320.515 346.5 311 C 345.563 310.308 344.897 310.475 344.5 311.5 C 344.167 311.5 343.833 311.5 343.5 311.5 C 344.152 310.275 345.319 309.608 347 309.5 C 361.182 310.288 375.349 310.621 389.5 310.5 C 387.728 317.216 383.394 320.883 376.5 321.5 Z" stroke-linecap="round"/>
</g>
		<g transform="matrix(1 0 0 1 110.5 66.6924)" id="868405">
<path style="stroke: none; stroke-width: 1; stroke-dasharray: none; stroke-linecap: butt; stroke-dashoffset: 0; stroke-linejoin: miter; stroke-miterlimit: 4; is-custom-font: none; font-file-url: none; fill: rgb(230,218,219); fill-rule: evenodd; opacity: 1;" transform=" translate(-360.5, -316.6925)" d="M 376.5 321.5 C 366.743 324.202 357.41 322.702 348.5 317 C 346.561 315.568 345.228 313.735 344.5 311.5 C 344.897 310.475 345.563 310.308 346.5 311 C 354.204 320.515 364.204 324.015 376.5 321.5 Z" stroke-linecap="round"/>
</g>
</g>
</g>
<g transform="matrix(1 0 0 1 500 278.7222)" style="" id="228749">
		
<path xml:space="preserve" font-family="Lato" font-size="100" font-style="normal" font-weight="bold" style="stroke: none; stroke-width: 0; stroke-dasharray: none; stroke-linecap: butt; stroke-dashoffset: 0; stroke-linejoin: miter; stroke-miterlimit: 4; is-custom-font: none; font-file-url: none; fill: rgb(0,146,41); fill-rule: nonzero; opacity: 1; white-space: pre;" d="M-316.75 31.41L-344.05 31.41L-344.05-40.89L-319.10-40.89Q-312.00-40.89-306.98-39.54Q-301.95-38.19-298.73-35.69Q-295.50-33.19-294.00-29.64Q-292.50-26.09-292.50-21.64L-292.50-21.64Q-292.50-19.09-293.25-16.76Q-294.00-14.44-295.58-12.41Q-297.15-10.39-299.58-8.74Q-302.00-7.09-305.35-5.94L-305.35-5.94Q-290.45-2.59-290.45 10.16L-290.45 10.16Q-290.45 14.76-292.20 18.66Q-293.95 22.56-297.30 25.39Q-300.65 28.21-305.55 29.81Q-310.45 31.41-316.75 31.41L-316.75 31.41ZM-317.00-0.29L-330.60-0.29L-330.60 20.91L-316.95 20.91Q-313.20 20.91-310.68 20.01Q-308.15 19.11-306.63 17.61Q-305.10 16.11-304.43 14.11Q-303.75 12.11-303.75 9.86L-303.75 9.86Q-303.75 7.51-304.50 5.64Q-305.25 3.76-306.85 2.44Q-308.45 1.11-310.95 0.41Q-313.45-0.29-317.00-0.29L-317.00-0.29ZM-330.60-30.49L-330.60-9.59L-319.85-9.59Q-313.00-9.59-309.45-12.09Q-305.90-14.59-305.90-20.04L-305.90-20.04Q-305.90-25.69-309.10-28.09Q-312.30-30.49-319.10-30.49L-319.10-30.49L-330.60-30.49ZM-257.70-20.69L-257.70-20.69Q-251.95-20.69-247.28-18.84Q-242.60-16.99-239.30-13.59Q-236.00-10.19-234.20-5.29Q-232.40-0.39-232.40 5.66L-232.40 5.66Q-232.40 11.76-234.20 16.66Q-236.00 21.56-239.30 25.01Q-242.60 28.46-247.28 30.31Q-251.95 32.16-257.70 32.16L-257.70 32.16Q-263.45 32.16-268.15 30.31Q-272.85 28.46-276.18 25.01Q-279.50 21.56-281.33 16.66Q-283.15 11.76-283.15 5.66L-283.15 5.66Q-283.15-0.39-281.33-5.29Q-279.50-10.19-276.18-13.59Q-272.85-16.99-268.15-18.84Q-263.45-20.69-257.70-20.69ZM-257.70 22.66L-257.70 22.66Q-251.30 22.66-248.23 18.36Q-245.15 14.06-245.15 5.76L-245.15 5.76Q-245.15-2.54-248.23-6.89Q-251.30-11.24-257.70-11.24L-257.70-11.24Q-264.20-11.24-267.30-6.86Q-270.40-2.49-270.40 5.76L-270.40 5.76Q-270.40 14.01-267.30 18.34Q-264.20 22.66-257.70 22.66ZM-223.80-19.89L-211.45-19.89L-211.45 12.71Q-211.45 17.41-209.28 19.99Q-207.10 22.56-202.75 22.56L-202.75 22.56Q-199.55 22.56-196.75 21.14Q-193.95 19.71-191.45 17.21L-191.45 17.21L-191.45-19.89L-179.10-19.89L-179.10 31.41L-186.65 31.41Q-189.05 31.41-189.80 29.16L-189.80 29.16L-190.65 25.06Q-192.25 26.66-193.95 27.99Q-195.65 29.31-197.58 30.24Q-199.50 31.16-201.73 31.69Q-203.95 32.21-206.50 32.21L-206.50 32.21Q-210.70 32.21-213.93 30.79Q-217.15 29.36-219.35 26.76Q-221.55 24.16-222.68 20.59Q-223.80 17.01-223.80 12.71L-223.80 12.71L-223.80-19.89ZM-153.55 31.41L-165.90 31.41L-165.90-19.89L-158.35-19.89Q-155.95-19.89-155.20-17.64L-155.20-17.64L-154.35-13.59Q-152.80-15.19-151.08-16.49Q-149.35-17.79-147.43-18.74Q-145.50-19.69-143.30-20.19Q-141.10-20.69-138.50-20.69L-138.50-20.69Q-134.30-20.69-131.05-19.26Q-127.80-17.84-125.63-15.26Q-123.45-12.69-122.33-9.11Q-121.20-5.54-121.20-1.24L-121.20-1.24L-121.20 31.41L-133.55 31.41L-133.55-1.24Q-133.55-5.94-135.73-8.51Q-137.90-11.09-142.25-11.09L-142.25-11.09Q-145.45-11.09-148.25-9.64Q-151.05-8.19-153.55-5.69L-153.55-5.69L-153.55 31.41ZM-92.20 32.21L-92.20 32.21Q-98.85 32.21-102.45 28.44Q-106.05 24.66-106.05 18.01L-106.05 18.01L-106.05-10.64L-111.25-10.64Q-112.25-10.64-112.98-11.29Q-113.70-11.94-113.70-13.24L-113.70-13.24L-113.70-18.14L-105.45-19.49L-102.85-33.49Q-102.65-34.49-101.93-35.04Q-101.20-35.59-100.10-35.59L-100.10-35.59L-93.70-35.59L-93.70-19.44L-80.20-19.44L-80.20-10.64L-93.70-10.64L-93.70 17.16Q-93.70 19.56-92.50 20.91Q-91.30 22.26-89.30 22.26L-89.30 22.26Q-88.15 22.26-87.38 21.99Q-86.60 21.71-86.03 21.41Q-85.45 21.11-85.00 20.84Q-84.55 20.56-84.10 20.56L-84.10 20.56Q-83.55 20.56-83.20 20.84Q-82.85 21.11-82.45 21.66L-82.45 21.66L-78.75 27.66Q-81.45 29.91-84.95 31.06Q-88.45 32.21-92.20 32.21ZM-69.55-19.89L-57.20-19.89L-57.20 31.41L-69.55 31.41L-69.55-19.89ZM-55.35-34.84L-55.35-34.84Q-55.35-33.24-56.00-31.84Q-56.65-30.44-57.73-29.39Q-58.80-28.34-60.25-27.71Q-61.70-27.09-63.35-27.09L-63.35-27.09Q-64.95-27.09-66.38-27.71Q-67.80-28.34-68.85-29.39Q-69.90-30.44-70.53-31.84Q-71.15-33.24-71.15-34.84L-71.15-34.84Q-71.15-36.49-70.53-37.94Q-69.90-39.39-68.85-40.44Q-67.80-41.49-66.38-42.11Q-64.95-42.74-63.35-42.74L-63.35-42.74Q-61.70-42.74-60.25-42.11Q-58.80-41.49-57.73-40.44Q-56.65-39.39-56.00-37.94Q-55.35-36.49-55.35-34.84ZM-28.70 31.41L-41.05 31.41L-41.05-10.59L-45.50-11.29Q-46.95-11.54-47.83-12.29Q-48.70-13.04-48.70-14.39L-48.70-14.39L-48.70-19.44L-41.05-19.44L-41.05-23.24Q-41.05-27.64-39.73-31.14Q-38.40-34.64-35.93-37.09Q-33.45-39.54-29.90-40.84Q-26.35-42.14-21.90-42.14L-21.90-42.14Q-18.35-42.14-15.30-41.19L-15.30-41.19L-15.55-34.99Q-15.65-33.54-16.90-33.19Q-18.15-32.84-19.80-32.84L-19.80-32.84Q-22.00-32.84-23.73-32.36Q-25.45-31.89-26.65-30.71Q-27.85-29.54-28.48-27.61Q-29.10-25.69-29.10-22.84L-29.10-22.84L-29.10-19.44L-15.75-19.44L-15.75-10.64L-28.70-10.64L-28.70 31.41ZM-9.25-19.89L3.10-19.89L3.10 12.71Q3.10 17.41 5.27 19.99Q7.45 22.56 11.80 22.56L11.80 22.56Q15.00 22.56 17.80 21.14Q20.60 19.71 23.10 17.21L23.10 17.21L23.10-19.89L35.45-19.89L35.45 31.41L27.90 31.41Q25.50 31.41 24.75 29.16L24.75 29.16L23.90 25.06Q22.30 26.66 20.60 27.99Q18.90 29.31 16.97 30.24Q15.05 31.16 12.82 31.69Q10.60 32.21 8.05 32.21L8.05 32.21Q3.85 32.21 0.62 30.79Q-2.60 29.36-4.80 26.76Q-7.00 24.16-8.13 20.59Q-9.25 17.01-9.25 12.71L-9.25 12.71L-9.25-19.89ZM49.45-42.89L61.80-42.89L61.80 31.41L49.45 31.41L49.45-42.89ZM95.75-40.89L141.35-40.89L141.35-30.19L109.30-30.19L109.30-8.79L136.35-8.79L136.35 1.96L109.30 1.96L109.30 31.41L95.75 31.41L95.75-40.89ZM169.90-20.69L169.90-20.69Q175.65-20.69 180.32-18.84Q185.00-16.99 188.30-13.59Q191.60-10.19 193.40-5.29Q195.20-0.39 195.20 5.66L195.20 5.66Q195.20 11.76 193.40 16.66Q191.60 21.56 188.30 25.01Q185.00 28.46 180.32 30.31Q175.65 32.16 169.90 32.16L169.90 32.16Q164.15 32.16 159.45 30.31Q154.75 28.46 151.42 25.01Q148.10 21.56 146.27 16.66Q144.45 11.76 144.45 5.66L144.45 5.66Q144.45-0.39 146.27-5.29Q148.10-10.19 151.42-13.59Q154.75-16.99 159.45-18.84Q164.15-20.69 169.90-20.69ZM169.90 22.66L169.90 22.66Q176.30 22.66 179.37 18.36Q182.45 14.06 182.45 5.76L182.45 5.76Q182.45-2.54 179.37-6.89Q176.30-11.24 169.90-11.24L169.90-11.24Q163.40-11.24 160.30-6.86Q157.20-2.49 157.20 5.76L157.20 5.76Q157.20 14.01 160.30 18.34Q163.40 22.66 169.90 22.66ZM226.75-20.69L226.75-20.69Q232.50-20.69 237.17-18.84Q241.85-16.99 245.15-13.59Q248.45-10.19 250.25-5.29Q252.05-0.39 252.05 5.66L252.05 5.66Q252.05 11.76 250.25 16.66Q248.45 21.56 245.15 25.01Q241.85 28.46 237.17 30.31Q232.50 32.16 226.75 32.16L226.75 32.16Q221.00 32.16 216.30 30.31Q211.60 28.46 208.27 25.01Q204.95 21.56 203.12 16.66Q201.30 11.76 201.30 5.66L201.30 5.66Q201.30-0.39 203.12-5.29Q204.95-10.19 208.27-13.59Q211.60-16.99 216.30-18.84Q221.00-20.69 226.75-20.69ZM226.75 22.66L226.75 22.66Q233.15 22.66 236.22 18.36Q239.30 14.06 239.30 5.76L239.30 5.76Q239.30-2.54 236.22-6.89Q233.15-11.24 226.75-11.24L226.75-11.24Q220.25-11.24 217.15-6.86Q214.05-2.49 214.05 5.76L214.05 5.76Q214.05 14.01 217.15 18.34Q220.25 22.66 226.75 22.66ZM305.35 31.41L297.80 31.41Q295.40 31.41 294.65 29.16L294.65 29.16L293.65 24.21Q292.05 26.01 290.30 27.46Q288.55 28.91 286.52 29.96Q284.50 31.01 282.17 31.59Q279.85 32.16 277.15 32.16L277.15 32.16Q272.95 32.16 269.45 30.41Q265.95 28.66 263.42 25.34Q260.90 22.01 259.52 17.11Q258.15 12.21 258.15 5.91L258.15 5.91Q258.15 0.21 259.70-4.69Q261.25-9.59 264.15-13.19Q267.05-16.79 271.10-18.81Q275.15-20.84 280.20-20.84L280.20-20.84Q284.50-20.84 287.55-19.46Q290.60-18.09 293.00-15.79L293.00-15.79L293.00-42.89L305.35-42.89L305.35 31.41ZM281.35 22.36L281.35 22.36Q285.20 22.36 287.90 20.76Q290.60 19.16 293.00 16.21L293.00 16.21L293.00-6.79Q290.90-9.34 288.42-10.39Q285.95-11.44 283.10-11.44L283.10-11.44Q280.30-11.44 278.02-10.39Q275.75-9.34 274.17-7.21Q272.60-5.09 271.75-1.81Q270.90 1.46 270.90 5.91L270.90 5.91Q270.90 10.41 271.62 13.54Q272.35 16.66 273.70 18.64Q275.05 20.61 277.00 21.49Q278.95 22.36 281.35 22.36ZM351.95-14.34L349.15-9.89Q348.65-9.09 348.10-8.76Q347.55-8.44 346.70-8.44L346.70-8.44Q345.80-8.44 344.77-8.94Q343.75-9.44 342.40-10.06Q341.05-10.69 339.32-11.19Q337.60-11.69 335.25-11.69L335.25-11.69Q331.60-11.69 329.50-10.14Q327.40-8.59 327.40-6.09L327.40-6.09Q327.40-4.44 328.47-3.31Q329.55-2.19 331.32-1.34Q333.10-0.49 335.35 0.19Q337.60 0.86 339.95 1.66Q342.30 2.46 344.55 3.49Q346.80 4.51 348.57 6.09Q350.35 7.66 351.42 9.86Q352.50 12.06 352.50 15.16L352.50 15.16Q352.50 18.86 351.15 21.99Q349.80 25.11 347.20 27.39Q344.60 29.66 340.77 30.94Q336.95 32.21 332.00 32.21L332.00 32.21Q329.35 32.21 326.82 31.74Q324.30 31.26 321.97 30.41Q319.65 29.56 317.67 28.41Q315.70 27.26 314.20 25.91L314.20 25.91L317.05 21.21Q317.60 20.36 318.35 19.91Q319.10 19.46 320.25 19.46L320.25 19.46Q321.40 19.46 322.42 20.11Q323.45 20.76 324.80 21.51Q326.15 22.26 327.97 22.91Q329.80 23.56 332.60 23.56L332.60 23.56Q334.80 23.56 336.37 23.04Q337.95 22.51 338.97 21.66Q340.00 20.81 340.47 19.69Q340.95 18.56 340.95 17.36L340.95 17.36Q340.95 15.56 339.87 14.41Q338.80 13.26 337.02 12.41Q335.25 11.56 332.97 10.89Q330.70 10.21 328.32 9.41Q325.95 8.61 323.67 7.54Q321.40 6.46 319.62 4.81Q317.85 3.16 316.77 0.76Q315.70-1.64 315.70-5.04L315.70-5.04Q315.70-8.19 316.95-11.04Q318.20-13.89 320.62-16.01Q323.05-18.14 326.67-19.41Q330.30-20.69 335.05-20.69L335.05-20.69Q340.35-20.69 344.70-18.94Q349.05-17.19 351.95-14.34L351.95-14.34Z"/></g>
</svg>